<?xml version="1.0"?>
<!-- Generated by SVGo -->
<svg width="600" height="460"
     xmlns="http://www.w3.org/2000/svg" 
     xmlns:xlink="http://www.w3.org/1999/xlink">
<text x="10" y="25" style="font-size:10" >PopSize=100 NumGenerations=10</text>
<path d="M 40 340 L 540 340" id="generation" stroke-width="1" stroke="black" fill="none" />
<text fill="blue" font-size="12" font-family="Verdana" dy="30" startOffset="25%" ><textPath xlink:href="#generation">Generation</textPath></text>
<path d="M 140 345 L 140 340" stroke-width="1" stroke="black" fill="none" />
<path d="M 240 345 L 240 340" stroke-width="1" stroke="black" fill="none" />
<path d="M 340 345 L 340 340" stroke-width="1" stroke="black" fill="none" />
<path d="M 440 345 L 440 340" stroke-width="1" stroke="black" fill="none" />
<path d="M 540 345 L 540 340" stroke-width="1" stroke="black" fill="none" />
<text x="132" y="355" fill="black" font-size="11" font-family="Verdana" >2</text>
<text x="232" y="355" fill="black" font-size="11" font-family="Verdana" >4</text>
<text x="332" y="355" fill="black" font-size="11" font-family="Verdana" >6</text>
<text x="432" y="355" fill="black" font-size="11" font-family="Verdana" >8</text>
<text x="532" y="355" fill="black" font-size="11" font-family="Verdana" >10</text>
<text x="5" y="75" style="writing-mode: tb; glyph-orientation-vertical:0; fill: blue; font-size: 10; font-family: Verdana;" ># of Individuals</text>
<text x="15" y="285" fill="black" font-size="11" font-family="Verdana" >20</text>
<text x="15" y="225" fill="black" font-size="11" font-family="Verdana" >40</text>
<text x="15" y="165" fill="black" font-size="11" font-family="Verdana" >60</text>
<text x="15" y="105" fill="black" font-size="11" font-family="Verdana" >80</text>
<text x="15" y="45" fill="black" font-size="11" font-family="Verdana" >100</text>
<path d="M 42 340 L 42 40.5" stroke-width="3" stroke="CornflowerBlue" fill="none" />
<path d="M 92 340 L 92 40.5" stroke-width="3" stroke="CornflowerBlue" fill="none" />
<path d="M 142 340 L 142 40.5" stroke-width="3" stroke="CornflowerBlue" fill="none" />
<path d="M 192 340 L 192 43.5" stroke-width="3" stroke="CornflowerBlue" fill="none" />
<path d="M 192 43 L 192 40.5" stroke-width="3" stroke="Yellow" fill="none" />
<path d="M 242 340 L 242 160.5" stroke-width="3" stroke="CornflowerBlue" fill="none" />
<path d="M 242 160 L 242 43.5" stroke-width="3" stroke="Yellow" fill="none" />
<path d="M 242 43 L 242 40.5" stroke-width="3" stroke="Plum" fill="none" />
<path d="M 292 340 L 292 244.5" stroke-width="3" stroke="CornflowerBlue" fill="none" />
<path d="M 292 244 L 292 184.5" stroke-width="3" stroke="Yellow" fill="none" />
<path d="M 292 184 L 292 55.5" stroke-width="3" stroke="Plum" fill="none" />
<path d="M 292 55 L 292 49.5" stroke-width="3" stroke="CornflowerBlue" fill="none" />
<path d="M 292 49 L 292 40.5" stroke-width="3" stroke="Yellow" fill="none" />
<path d="M 342 340 L 342 253.5" stroke-width="3" stroke="CornflowerBlue" fill="none" />
<path d="M 342 253 L 342 202.5" stroke-width="3" stroke="Yellow" fill="none" />
<path d="M 342 202 L 342 124.5" stroke-width="3" stroke="Plum" fill="none" />
<path d="M 342 124 L 342 85.5" stroke-width="3" stroke="CornflowerBlue" fill="none" />
<path d="M 342 85 L 342 43.5" stroke-width="3" stroke="Yellow" fill="none" />
<path d="M 342 43 L 342 40.5" stroke-width="3" stroke="Plum" fill="none" />
<path d="M 392 340 L 392 247.5" stroke-width="3" stroke="CornflowerBlue" fill="none" />
<path d="M 392 247 L 392 220.5" stroke-width="3" stroke="Yellow" fill="none" />
<path d="M 392 220 L 392 169.5" stroke-width="3" stroke="Plum" fill="none" />
<path d="M 392 169 L 392 121.5" stroke-width="3" stroke="CornflowerBlue" fill="none" />
<path d="M 392 121 L 392 91.5" stroke-width="3" stroke="Yellow" fill="none" />
<path d="M 392 91 L 392 58.5" stroke-width="3" stroke="Plum" fill="none" />
<path d="M 392 58 L 392 46.5" stroke-width="3" stroke="CornflowerBlue" fill="none" />
<path d="M 392 46 L 392 43.5" stroke-width="3" stroke="Yellow" fill="none" />
<path d="M 392 43 L 392 40.5" stroke-width="3" stroke="Plum" fill="none" />
<path d="M 442 340 L 442 304.5" stroke-width="3" stroke="CornflowerBlue" fill="none" />
<path d="M 442 304 L 442 259.5" stroke-width="3" stroke="Yellow" fill="none" />
<path d="M 442 259 L 442 217.5" stroke-width="3" stroke="Plum" fill="none" />
<path d="M 442 217 L 442 196.5" stroke-width="3" stroke="CornflowerBlue" fill="none" />
<path d="M 442 196 L 442 175.5" stroke-width="3" stroke="Yellow" fill="none" />
<path d="M 442 175 L 442 133.5" stroke-width="3" stroke="Plum" fill="none" />
<path d="M 442 133 L 442 115.5" stroke-width="3" stroke="CornflowerBlue" fill="none" />
<path d="M 442 115 L 442 94.5" stroke-width="3" stroke="Yellow" fill="none" />
<path d="M 442 94 L 442 82.5" stroke-width="3" stroke="Plum" fill="none" />
<path d="M 442 82 L 442 70.5" stroke-width="3" stroke="CornflowerBlue" fill="none" />
<path d="M 442 70 L 442 58.5" stroke-width="3" stroke="Yellow" fill="none" />
<path d="M 442 58 L 442 52.5" stroke-width="3" stroke="Plum" fill="none" />
<path d="M 442 52 L 442 49.5" stroke-width="3" stroke="CornflowerBlue" fill="none" />
<path d="M 442 49 L 442 46.5" stroke-width="3" stroke="Yellow" fill="none" />
<path d="M 442 46 L 442 43.5" stroke-width="3" stroke="Plum" fill="none" />
<path d="M 442 43 L 442 40.5" stroke-width="3" stroke="CornflowerBlue" fill="none" />
<path d="M 492 340 L 492 244.5" stroke-width="3" stroke="CornflowerBlue" fill="none" />
<path d="M 492 244 L 492 220.5" stroke-width="3" stroke="Yellow" fill="none" />
<path d="M 492 220 L 492 196.5" stroke-width="3" stroke="Plum" fill="none" />
<path d="M 492 196 L 492 178.5" stroke-width="3" stroke="CornflowerBlue" fill="none" />
<path d="M 492 178 L 492 163.5" stroke-width="3" stroke="Yellow" fill="none" />
<path d="M 492 163 L 492 139.5" stroke-width="3" stroke="Plum" fill="none" />
<path d="M 492 139 L 492 124.5" stroke-width="3" stroke="CornflowerBlue" fill="none" />
<path d="M 492 124 L 492 112.5" stroke-width="3" stroke="Yellow" fill="none" />
<path d="M 492 112 L 492 103.5" stroke-width="3" stroke="Plum" fill="none" />
<path d="M 492 103 L 492 97.5" stroke-width="3" stroke="CornflowerBlue" fill="none" />
<path d="M 492 97 L 492 76.5" stroke-width="3" stroke="Yellow" fill="none" />
<path d="M 492 76 L 492 61.5" stroke-width="3" stroke="Plum" fill="none" />
<path d="M 492 61 L 492 49.5" stroke-width="3" stroke="CornflowerBlue" fill="none" />
<path d="M 492 49 L 492 46.5" stroke-width="3" stroke="Yellow" fill="none" />
<path d="M 492 46 L 492 43.5" stroke-width="3" stroke="Plum" fill="none" />
<path d="M 492 43 L 492 40.5" stroke-width="3" stroke="CornflowerBlue" fill="none" />
</svg>
