<?xml version="1.0"?>
<!-- Generated by SVGo -->
<svg width="575" height="375"
     xmlns="http://www.w3.org/2000/svg" 
     xmlns:xlink="http://www.w3.org/1999/xlink">
<path d="M 40 340 L 540 340" id="generation" stroke-width="1" stroke="black" fill="none" />
<text fill="blue" font-size="15" font-family="Verdana" dy="30" startOffset="40%" ><textPath xlink:href="#generation">Generation</textPath></text>
<path d="M 140 345 L 140 335" stroke-width="1" stroke="black" fill="none" />
<path d="M 240 345 L 240 335" stroke-width="1" stroke="black" fill="none" />
<path d="M 340 345 L 340 335" stroke-width="1" stroke="black" fill="none" />
<path d="M 440 345 L 440 335" stroke-width="1" stroke="black" fill="none" />
<path d="M 540 345 L 540 335" stroke-width="1" stroke="black" fill="none" />
<text x="132" y="355" fill="black" font-size="11" font-family="Verdana" >38</text>
<text x="232" y="355" fill="black" font-size="11" font-family="Verdana" >76</text>
<text x="332" y="355" fill="black" font-size="11" font-family="Verdana" >114</text>
<text x="432" y="355" fill="black" font-size="11" font-family="Verdana" >152</text>
<text x="532" y="355" fill="black" font-size="11" font-family="Verdana" >190</text>
<path d="M 40 340 L 40 40" id="complexity" stroke-width="1" strok="black" fill="none" />
<text fill="blue" font-size="15" font-family="Verdana" dy="-25" startOffset="40%" ><textPath xlink:href="#complexity">Number of Genes</textPath></text>
<path d="M 40 40 L 540 40" id="complexity1" stroke-width="0.5" stroke="green" fill="none" />
<text fill="green" fill-opacity="1.0" font-size="9" font-family="Verdana" dy="8" startOffset="90%" ><textPath xlink:href="#complexity1">293</textPath></text>
<path d="M 40 100 L 540 100" id="complexity2" stroke-width="0.5" stroke="green" fill="none" />
<text fill="green" fill-opacity="1.0" font-size="9" font-family="Verdana" dy="8" startOffset="70%" ><textPath xlink:href="#complexity2">275</textPath></text>
<path d="M 40 160 L 540 160" id="complexity3" stroke-width="0.5" stroke="green" fill="none" />
<text fill="green" fill-opacity="1.0" font-size="9" font-family="Verdana" dy="8" startOffset="50%" ><textPath xlink:href="#complexity3">257</textPath></text>
<path d="M 40 220 L 540 220" id="complexity4" stroke-width="0.5" stroke="green" fill="none" />
<text fill="green" fill-opacity="1.0" font-size="9" font-family="Verdana" dy="8" startOffset="30%" ><textPath xlink:href="#complexity4">239</textPath></text>
<path d="M 40 280 L 540 280" id="complexity5" stroke-width="0.5" stroke="green" fill="none" />
<text fill="green" fill-opacity="1.0" font-size="9" font-family="Verdana" dy="8" startOffset="10%" ><textPath xlink:href="#complexity5">221</textPath></text>
<text fill="green" fill-opacity="1.0" font-size="9" font-family="Verdana" dy="8" startOffset="0%" ><textPath xlink:href="#generation">203</textPath></text>
<path d="M 38 338 L 40 334 L 42 338 z" id="0" fill="red" />
<circle cx="40" cy="340" r="1" id="0" fill="black" />
<path d="M 40 340 L 40 340" stroke-width="0.5" stroke="blue" fill="none" />
<path d="M 40 338 L 42 334 L 44 338 z" id="1" fill="red" />
<circle cx="42" cy="339" r="1" id="1" fill="black" />
<path d="M 42 340 L 42 330" stroke-width="0.5" stroke="blue" fill="none" />
<path d="M 42 338 L 44 334 L 46 338 z" id="2" fill="red" />
<circle cx="44" cy="338" r="1" id="2" fill="black" />
<path d="M 44 340 L 44 320" stroke-width="0.5" stroke="blue" fill="none" />
<path d="M 44 338 L 46 334 L 48 338 z" id="3" fill="red" />
<circle cx="46" cy="329" r="1" id="3" fill="black" />
<path d="M 46 340 L 46 316.6666666666667" stroke-width="0.5" stroke="blue" fill="none" />
<path d="M 46 338 L 48 334 L 50 338 z" id="4" fill="red" />
<circle cx="48" cy="331" r="1" id="4" fill="black" />
<path d="M 48 340 L 48 316.6666666666667" stroke-width="0.5" stroke="blue" fill="none" />
<path d="M 48 338 L 50 334 L 52 338 z" id="5" fill="red" />
<circle cx="50" cy="328" r="1" id="5" fill="black" />
<path d="M 50 340 L 50 310" stroke-width="0.5" stroke="blue" fill="none" />
<path d="M 50 338 L 52 334 L 54 338 z" id="6" fill="red" />
<circle cx="52" cy="326" r="1" id="6" fill="black" />
<path d="M 52 340 L 52 310" stroke-width="0.5" stroke="blue" fill="none" />
<path d="M 52 338 L 54 334 L 56 338 z" id="7" fill="red" />
<circle cx="54" cy="326" r="1" id="7" fill="black" />
<path d="M 54 340 L 54 310" stroke-width="0.5" stroke="blue" fill="none" />
<path d="M 54 321.3333333333333 L 56 317.3333333333333 L 58 321.3333333333333 z" id="8" fill="red" />
<circle cx="56" cy="323" r="1" id="8" fill="black" />
<path d="M 56 340 L 56 300" stroke-width="0.5" stroke="blue" fill="none" />
<path d="M 56 338 L 58 334 L 60 338 z" id="9" fill="red" />
<circle cx="58" cy="321" r="1" id="9" fill="black" />
<path d="M 58 340 L 58 300" stroke-width="0.5" stroke="blue" fill="none" />
<path d="M 58 311.3333333333333 L 60 307.3333333333333 L 62 311.3333333333333 z" id="10" fill="red" />
<circle cx="60" cy="322" r="1" id="10" fill="black" />
<path d="M 60 340 L 60 300" stroke-width="0.5" stroke="blue" fill="none" />
<path d="M 60 318 L 62 314 L 64 318 z" id="11" fill="red" />
<circle cx="62" cy="318" r="1" id="11" fill="black" />
<path d="M 62 340 L 62 300" stroke-width="0.5" stroke="blue" fill="none" />
<path d="M 62 318 L 64 314 L 66 318 z" id="12" fill="red" />
<circle cx="64" cy="316" r="1" id="12" fill="black" />
<path d="M 64 340 L 64 293.3333333333333" stroke-width="0.5" stroke="blue" fill="none" />
<path d="M 64 318 L 66 314 L 68 318 z" id="13" fill="red" />
<circle cx="66" cy="317" r="1" id="13" fill="black" />
<path d="M 66 340 L 66 293.3333333333333" stroke-width="0.5" stroke="blue" fill="none" />
<path d="M 66 338 L 68 334 L 70 338 z" id="14" fill="red" />
<circle cx="68" cy="314" r="1" id="14" fill="black" />
<path d="M 68 340 L 68 293.3333333333333" stroke-width="0.5" stroke="blue" fill="none" />
<path d="M 68 338 L 70 334 L 72 338 z" id="15" fill="red" />
<circle cx="70" cy="319" r="1" id="15" fill="black" />
<path d="M 70 340 L 70 293.3333333333333" stroke-width="0.5" stroke="blue" fill="none" />
<path d="M 70 338 L 72 334 L 74 338 z" id="16" fill="red" />
<circle cx="72" cy="314" r="1" id="16" fill="black" />
<path d="M 72 340 L 72 293.3333333333333" stroke-width="0.5" stroke="blue" fill="none" />
<path d="M 72 338 L 74 334 L 76 338 z" id="17" fill="red" />
<circle cx="74" cy="314" r="1" id="17" fill="black" />
<path d="M 74 340 L 74 293.3333333333333" stroke-width="0.5" stroke="blue" fill="none" />
<path d="M 74 338 L 76 334 L 78 338 z" id="18" fill="red" />
<circle cx="76" cy="313" r="1" id="18" fill="black" />
<path d="M 76 340 L 76 293.3333333333333" stroke-width="0.5" stroke="blue" fill="none" />
<path d="M 76 338 L 78 334 L 80 338 z" id="19" fill="red" />
<circle cx="78" cy="313" r="1" id="19" fill="black" />
<path d="M 78 340 L 78 290" stroke-width="0.5" stroke="blue" fill="none" />
<path d="M 78 338 L 80 334 L 82 338 z" id="20" fill="red" />
<circle cx="80" cy="312" r="1" id="20" fill="black" />
<path d="M 80 340 L 80 286.6666666666667" stroke-width="0.5" stroke="blue" fill="none" />
<path d="M 80 314.6666666666667 L 82 310.6666666666667 L 84 314.6666666666667 z" id="21" fill="red" />
<circle cx="82" cy="309" r="1" id="21" fill="black" />
<path d="M 82 340 L 82 286.6666666666667" stroke-width="0.5" stroke="blue" fill="none" />
<path d="M 82 304.6666666666667 L 84 300.6666666666667 L 86 304.6666666666667 z" id="22" fill="red" />
<circle cx="84" cy="308" r="1" id="22" fill="black" />
<path d="M 84 340 L 84 286.6666666666667" stroke-width="0.5" stroke="blue" fill="none" />
<path d="M 84 298 L 86 294 L 88 298 z" id="23" fill="red" />
<circle cx="86" cy="306" r="1" id="23" fill="black" />
<path d="M 86 340 L 86 286.6666666666667" stroke-width="0.5" stroke="blue" fill="none" />
<path d="M 86 298 L 88 294 L 90 298 z" id="24" fill="red" />
<circle cx="88" cy="305" r="1" id="24" fill="black" />
<path d="M 88 340 L 88 286.6666666666667" stroke-width="0.5" stroke="blue" fill="none" />
<path d="M 88 301.3333333333333 L 90 297.3333333333333 L 92 301.3333333333333 z" id="25" fill="red" />
<circle cx="90" cy="306" r="1" id="25" fill="black" />
<path d="M 90 340 L 90 283.3333333333333" stroke-width="0.5" stroke="blue" fill="none" />
<path d="M 90 294.6666666666667 L 92 290.6666666666667 L 94 294.6666666666667 z" id="26" fill="red" />
<circle cx="92" cy="301" r="1" id="26" fill="black" />
<path d="M 92 320 L 92 283.3333333333333" stroke-width="0.5" stroke="blue" fill="none" />
<path d="M 92 301.3333333333333 L 94 297.3333333333333 L 96 301.3333333333333 z" id="27" fill="red" />
<circle cx="94" cy="302" r="1" id="27" fill="black" />
<path d="M 94 320 L 94 283.3333333333333" stroke-width="0.5" stroke="blue" fill="none" />
<path d="M 94 298 L 96 294 L 98 298 z" id="28" fill="red" />
<circle cx="96" cy="300" r="1" id="28" fill="black" />
<path d="M 96 320 L 96 283.3333333333333" stroke-width="0.5" stroke="blue" fill="none" />
<path d="M 96 288 L 98 284 L 100 288 z" id="29" fill="red" />
<circle cx="98" cy="300" r="1" id="29" fill="black" />
<path d="M 98 320 L 98 283.3333333333333" stroke-width="0.5" stroke="blue" fill="none" />
<path d="M 98 304.6666666666667 L 100 300.6666666666667 L 102 304.6666666666667 z" id="30" fill="red" />
<circle cx="100" cy="297" r="1" id="30" fill="black" />
<path d="M 100 320 L 100 283.3333333333333" stroke-width="0.5" stroke="blue" fill="none" />
<path d="M 100 281.3333333333333 L 102 277.3333333333333 L 104 281.3333333333333 z" id="31" fill="red" />
<circle cx="102" cy="296" r="1" id="31" fill="black" />
<path d="M 102 310 L 102 283.3333333333333" stroke-width="0.5" stroke="blue" fill="none" />
<path d="M 102 281.3333333333333 L 104 277.3333333333333 L 106 281.3333333333333 z" id="32" fill="red" />
<circle cx="104" cy="294" r="1" id="32" fill="black" />
<path d="M 104 310 L 104 273.3333333333333" stroke-width="0.5" stroke="blue" fill="none" />
<path d="M 104 281.3333333333333 L 106 277.3333333333333 L 108 281.3333333333333 z" id="33" fill="red" />
<circle cx="106" cy="292" r="1" id="33" fill="black" />
<path d="M 106 306.6666666666667 L 106 263.3333333333333" stroke-width="0.5" stroke="blue" fill="none" />
<path d="M 106 288 L 108 284 L 110 288 z" id="34" fill="red" />
<circle cx="108" cy="291" r="1" id="34" fill="black" />
<path d="M 108 306.6666666666667 L 108 263.3333333333333" stroke-width="0.5" stroke="blue" fill="none" />
<path d="M 108 288 L 110 284 L 112 288 z" id="35" fill="red" />
<circle cx="110" cy="289" r="1" id="35" fill="black" />
<path d="M 110 306.6666666666667 L 110 263.3333333333333" stroke-width="0.5" stroke="blue" fill="none" />
<path d="M 110 288 L 112 284 L 114 288 z" id="36" fill="red" />
<circle cx="112" cy="288" r="1" id="36" fill="black" />
<path d="M 112 306.6666666666667 L 112 263.3333333333333" stroke-width="0.5" stroke="blue" fill="none" />
<path d="M 112 278 L 114 274 L 116 278 z" id="37" fill="red" />
<circle cx="114" cy="288" r="1" id="37" fill="black" />
<path d="M 114 303.3333333333333 L 114 263.3333333333333" stroke-width="0.5" stroke="blue" fill="none" />
<path d="M 114 278 L 116 274 L 118 278 z" id="38" fill="red" />
<circle cx="116" cy="286" r="1" id="38" fill="black" />
<path d="M 116 303.3333333333333 L 116 263.3333333333333" stroke-width="0.5" stroke="blue" fill="none" />
<path d="M 116 291.3333333333333 L 118 287.3333333333333 L 120 291.3333333333333 z" id="39" fill="red" />
<circle cx="118" cy="285" r="1" id="39" fill="black" />
<path d="M 118 303.3333333333333 L 118 263.3333333333333" stroke-width="0.5" stroke="blue" fill="none" />
<path d="M 118 298 L 120 294 L 122 298 z" id="40" fill="red" />
<circle cx="120" cy="283" r="1" id="40" fill="black" />
<path d="M 120 300 L 120 263.3333333333333" stroke-width="0.5" stroke="blue" fill="none" />
<path d="M 120 271.3333333333333 L 122 267.3333333333333 L 124 271.3333333333333 z" id="41" fill="red" />
<circle cx="122" cy="282" r="1" id="41" fill="black" />
<path d="M 122 300 L 122 263.3333333333333" stroke-width="0.5" stroke="blue" fill="none" />
<path d="M 122 271.3333333333333 L 124 267.3333333333333 L 126 271.3333333333333 z" id="42" fill="red" />
<circle cx="124" cy="280" r="1" id="42" fill="black" />
<path d="M 124 300 L 124 263.3333333333333" stroke-width="0.5" stroke="blue" fill="none" />
<path d="M 124 291.3333333333333 L 126 287.3333333333333 L 128 291.3333333333333 z" id="43" fill="red" />
<circle cx="126" cy="278" r="1" id="43" fill="black" />
<path d="M 126 300 L 126 263.3333333333333" stroke-width="0.5" stroke="blue" fill="none" />
<path d="M 126 291.3333333333333 L 128 287.3333333333333 L 130 291.3333333333333 z" id="44" fill="red" />
<circle cx="128" cy="280" r="1" id="44" fill="black" />
<path d="M 128 300 L 128 260" stroke-width="0.5" stroke="blue" fill="none" />
<path d="M 128 291.3333333333333 L 130 287.3333333333333 L 132 291.3333333333333 z" id="45" fill="red" />
<circle cx="130" cy="276" r="1" id="45" fill="black" />
<path d="M 130 300 L 130 253.33333333333331" stroke-width="0.5" stroke="blue" fill="none" />
<path d="M 130 274.6666666666667 L 132 270.6666666666667 L 134 274.6666666666667 z" id="46" fill="red" />
<circle cx="132" cy="274" r="1" id="46" fill="black" />
<path d="M 132 300 L 132 253.33333333333331" stroke-width="0.5" stroke="blue" fill="none" />
<path d="M 132 261.3333333333333 L 134 257.3333333333333 L 136 261.3333333333333 z" id="47" fill="red" />
<circle cx="134" cy="272" r="1" id="47" fill="black" />
<path d="M 134 296.6666666666667 L 134 250" stroke-width="0.5" stroke="blue" fill="none" />
<path d="M 134 251.33333333333331 L 136 247.33333333333331 L 138 251.33333333333331 z" id="48" fill="red" />
<circle cx="136" cy="272" r="1" id="48" fill="black" />
<path d="M 136 296.6666666666667 L 136 246.66666666666666" stroke-width="0.5" stroke="blue" fill="none" />
<path d="M 136 241.33333333333331 L 138 237.33333333333331 L 140 241.33333333333331 z" id="49" fill="red" />
<circle cx="138" cy="272" r="1" id="49" fill="black" />
<path d="M 138 296.6666666666667 L 138 243.33333333333331" stroke-width="0.5" stroke="blue" fill="none" />
<path d="M 138 288 L 140 284 L 142 288 z" id="50" fill="red" />
<circle cx="140" cy="270" r="1" id="50" fill="black" />
<path d="M 140 296.6666666666667 L 140 243.33333333333331" stroke-width="0.5" stroke="blue" fill="none" />
<path d="M 140 251.33333333333331 L 142 247.33333333333331 L 144 251.33333333333331 z" id="51" fill="red" />
<circle cx="142" cy="270" r="1" id="51" fill="black" />
<path d="M 142 296.6666666666667 L 142 243.33333333333331" stroke-width="0.5" stroke="blue" fill="none" />
<path d="M 142 241.33333333333331 L 144 237.33333333333331 L 146 241.33333333333331 z" id="52" fill="red" />
<circle cx="144" cy="270" r="1" id="52" fill="black" />
<path d="M 144 296.6666666666667 L 144 243.33333333333331" stroke-width="0.5" stroke="blue" fill="none" />
<path d="M 144 241.33333333333331 L 146 237.33333333333331 L 148 241.33333333333331 z" id="53" fill="red" />
<circle cx="146" cy="269" r="1" id="53" fill="black" />
<path d="M 146 296.6666666666667 L 146 240" stroke-width="0.5" stroke="blue" fill="none" />
<path d="M 146 238 L 148 234 L 150 238 z" id="54" fill="red" />
<circle cx="148" cy="265" r="1" id="54" fill="black" />
<path d="M 148 293.3333333333333 L 148 240" stroke-width="0.5" stroke="blue" fill="none" />
<path d="M 148 234.66666666666666 L 150 230.66666666666666 L 152 234.66666666666666 z" id="55" fill="red" />
<circle cx="150" cy="267" r="1" id="55" fill="black" />
<path d="M 150 293.3333333333333 L 150 236.66666666666666" stroke-width="0.5" stroke="blue" fill="none" />
<path d="M 150 238 L 152 234 L 154 238 z" id="56" fill="red" />
<circle cx="152" cy="267" r="1" id="56" fill="black" />
<path d="M 152 293.3333333333333 L 152 233.33333333333331" stroke-width="0.5" stroke="blue" fill="none" />
<path d="M 152 274.6666666666667 L 154 270.6666666666667 L 156 274.6666666666667 z" id="57" fill="red" />
<circle cx="154" cy="267" r="1" id="57" fill="black" />
<path d="M 154 290 L 154 233.33333333333331" stroke-width="0.5" stroke="blue" fill="none" />
<path d="M 154 278 L 156 274 L 158 278 z" id="58" fill="red" />
<circle cx="156" cy="265" r="1" id="58" fill="black" />
<path d="M 156 290 L 156 230" stroke-width="0.5" stroke="blue" fill="none" />
<path d="M 156 278 L 158 274 L 160 278 z" id="59" fill="red" />
<circle cx="158" cy="263" r="1" id="59" fill="black" />
<path d="M 158 290 L 158 223.33333333333331" stroke-width="0.5" stroke="blue" fill="none" />
<path d="M 158 274.6666666666667 L 160 270.6666666666667 L 162 274.6666666666667 z" id="60" fill="red" />
<circle cx="160" cy="255" r="1" id="60" fill="black" />
<path d="M 160 283.3333333333333 L 160 223.33333333333331" stroke-width="0.5" stroke="blue" fill="none" />
<path d="M 160 274.6666666666667 L 162 270.6666666666667 L 164 274.6666666666667 z" id="61" fill="red" />
<circle cx="162" cy="256" r="1" id="61" fill="black" />
<path d="M 162 283.3333333333333 L 162 223.33333333333331" stroke-width="0.5" stroke="blue" fill="none" />
<path d="M 162 278 L 164 274 L 166 278 z" id="62" fill="red" />
<circle cx="164" cy="255" r="1" id="62" fill="black" />
<path d="M 164 283.3333333333333 L 164 220" stroke-width="0.5" stroke="blue" fill="none" />
<path d="M 164 274.6666666666667 L 166 270.6666666666667 L 168 274.6666666666667 z" id="63" fill="red" />
<circle cx="166" cy="259" r="1" id="63" fill="black" />
<path d="M 166 283.3333333333333 L 166 216.66666666666666" stroke-width="0.5" stroke="blue" fill="none" />
<path d="M 166 274.6666666666667 L 168 270.6666666666667 L 170 274.6666666666667 z" id="64" fill="red" />
<circle cx="168" cy="258" r="1" id="64" fill="black" />
<path d="M 168 283.3333333333333 L 168 216.66666666666666" stroke-width="0.5" stroke="blue" fill="none" />
<path d="M 168 274.6666666666667 L 170 270.6666666666667 L 172 274.6666666666667 z" id="65" fill="red" />
<circle cx="170" cy="257" r="1" id="65" fill="black" />
<path d="M 170 283.3333333333333 L 170 216.66666666666666" stroke-width="0.5" stroke="blue" fill="none" />
<path d="M 170 218 L 172 214 L 174 218 z" id="66" fill="red" />
<circle cx="172" cy="256" r="1" id="66" fill="black" />
<path d="M 172 283.3333333333333 L 172 216.66666666666666" stroke-width="0.5" stroke="blue" fill="none" />
<path d="M 172 281.3333333333333 L 174 277.3333333333333 L 176 281.3333333333333 z" id="67" fill="red" />
<circle cx="174" cy="253" r="1" id="67" fill="black" />
<path d="M 174 283.3333333333333 L 174 216.66666666666666" stroke-width="0.5" stroke="blue" fill="none" />
<path d="M 174 281.3333333333333 L 176 277.3333333333333 L 178 281.3333333333333 z" id="68" fill="red" />
<circle cx="176" cy="253" r="1" id="68" fill="black" />
<path d="M 176 283.3333333333333 L 176 206.66666666666666" stroke-width="0.5" stroke="blue" fill="none" />
<path d="M 176 218 L 178 214 L 180 218 z" id="69" fill="red" />
<circle cx="178" cy="245" r="1" id="69" fill="black" />
<path d="M 178 283.3333333333333 L 178 206.66666666666666" stroke-width="0.5" stroke="blue" fill="none" />
<path d="M 178 251.33333333333331 L 180 247.33333333333331 L 182 251.33333333333331 z" id="70" fill="red" />
<circle cx="180" cy="244" r="1" id="70" fill="black" />
<path d="M 180 283.3333333333333 L 180 206.66666666666666" stroke-width="0.5" stroke="blue" fill="none" />
<path d="M 180 278 L 182 274 L 184 278 z" id="71" fill="red" />
<circle cx="182" cy="243" r="1" id="71" fill="black" />
<path d="M 182 280 L 182 206.66666666666666" stroke-width="0.5" stroke="blue" fill="none" />
<path d="M 182 204.66666666666666 L 184 200.66666666666666 L 186 204.66666666666666 z" id="72" fill="red" />
<circle cx="184" cy="239" r="1" id="72" fill="black" />
<path d="M 184 280 L 184 196.66666666666666" stroke-width="0.5" stroke="blue" fill="none" />
<path d="M 184 268 L 186 264 L 188 268 z" id="73" fill="red" />
<circle cx="186" cy="236" r="1" id="73" fill="black" />
<path d="M 186 280 L 186 196.66666666666666" stroke-width="0.5" stroke="blue" fill="none" />
<path d="M 186 201.33333333333331 L 188 197.33333333333331 L 190 201.33333333333331 z" id="74" fill="red" />
<circle cx="188" cy="239" r="1" id="74" fill="black" />
<path d="M 188 280 L 188 196.66666666666666" stroke-width="0.5" stroke="blue" fill="none" />
<path d="M 188 278 L 190 274 L 192 278 z" id="75" fill="red" />
<circle cx="190" cy="237" r="1" id="75" fill="black" />
<path d="M 190 280 L 190 196.66666666666666" stroke-width="0.5" stroke="blue" fill="none" />
<path d="M 190 201.33333333333331 L 192 197.33333333333331 L 194 201.33333333333331 z" id="76" fill="red" />
<circle cx="192" cy="239" r="1" id="76" fill="black" />
<path d="M 192 280 L 192 196.66666666666666" stroke-width="0.5" stroke="blue" fill="none" />
<path d="M 192 201.33333333333331 L 194 197.33333333333331 L 196 201.33333333333331 z" id="77" fill="red" />
<circle cx="194" cy="231" r="1" id="77" fill="black" />
<path d="M 194 280 L 194 196.66666666666666" stroke-width="0.5" stroke="blue" fill="none" />
<path d="M 194 201.33333333333331 L 196 197.33333333333331 L 198 201.33333333333331 z" id="78" fill="red" />
<circle cx="196" cy="234" r="1" id="78" fill="black" />
<path d="M 196 280 L 196 196.66666666666666" stroke-width="0.5" stroke="blue" fill="none" />
<path d="M 196 194.66666666666666 L 198 190.66666666666666 L 200 194.66666666666666 z" id="79" fill="red" />
<circle cx="198" cy="230" r="1" id="79" fill="black" />
<path d="M 198 280 L 198 193.33333333333331" stroke-width="0.5" stroke="blue" fill="none" />
<path d="M 198 194.66666666666666 L 200 190.66666666666666 L 202 194.66666666666666 z" id="80" fill="red" />
<circle cx="200" cy="228" r="1" id="80" fill="black" />
<path d="M 200 280 L 200 193.33333333333331" stroke-width="0.5" stroke="blue" fill="none" />
<path d="M 200 248 L 202 244 L 204 248 z" id="81" fill="red" />
<circle cx="202" cy="229" r="1" id="81" fill="black" />
<path d="M 202 280 L 202 193.33333333333331" stroke-width="0.5" stroke="blue" fill="none" />
<path d="M 202 191.33333333333331 L 204 187.33333333333331 L 206 191.33333333333331 z" id="82" fill="red" />
<circle cx="204" cy="230" r="1" id="82" fill="black" />
<path d="M 204 280 L 204 193.33333333333331" stroke-width="0.5" stroke="blue" fill="none" />
<path d="M 204 191.33333333333331 L 206 187.33333333333331 L 208 191.33333333333331 z" id="83" fill="red" />
<circle cx="206" cy="230" r="1" id="83" fill="black" />
<path d="M 206 280 L 206 193.33333333333331" stroke-width="0.5" stroke="blue" fill="none" />
<path d="M 206 191.33333333333331 L 208 187.33333333333331 L 210 191.33333333333331 z" id="84" fill="red" />
<circle cx="208" cy="230" r="1" id="84" fill="black" />
<path d="M 208 280 L 208 193.33333333333331" stroke-width="0.5" stroke="blue" fill="none" />
<path d="M 208 254.66666666666663 L 210 250.66666666666663 L 212 254.66666666666663 z" id="85" fill="red" />
<circle cx="210" cy="232" r="1" id="85" fill="black" />
<path d="M 210 280 L 210 193.33333333333331" stroke-width="0.5" stroke="blue" fill="none" />
<path d="M 210 264.66666666666663 L 212 260.66666666666663 L 214 264.66666666666663 z" id="86" fill="red" />
<circle cx="212" cy="234" r="1" id="86" fill="black" />
<path d="M 212 270 L 212 193.33333333333331" stroke-width="0.5" stroke="blue" fill="none" />
<path d="M 212 261.3333333333333 L 214 257.3333333333333 L 216 261.3333333333333 z" id="87" fill="red" />
<circle cx="214" cy="233" r="1" id="87" fill="black" />
<path d="M 214 270 L 214 190" stroke-width="0.5" stroke="blue" fill="none" />
<path d="M 214 261.3333333333333 L 216 257.3333333333333 L 218 261.3333333333333 z" id="88" fill="red" />
<circle cx="216" cy="235" r="1" id="88" fill="black" />
<path d="M 216 270 L 216 190" stroke-width="0.5" stroke="blue" fill="none" />
<path d="M 216 261.3333333333333 L 218 257.3333333333333 L 220 261.3333333333333 z" id="89" fill="red" />
<circle cx="218" cy="234" r="1" id="89" fill="black" />
<path d="M 218 270 L 218 190" stroke-width="0.5" stroke="blue" fill="none" />
<path d="M 218 191.33333333333331 L 220 187.33333333333331 L 222 191.33333333333331 z" id="90" fill="red" />
<circle cx="220" cy="232" r="1" id="90" fill="black" />
<path d="M 220 270 L 220 186.66666666666666" stroke-width="0.5" stroke="blue" fill="none" />
<path d="M 220 191.33333333333331 L 222 187.33333333333331 L 224 191.33333333333331 z" id="91" fill="red" />
<circle cx="222" cy="232" r="1" id="91" fill="black" />
<path d="M 222 270 L 222 193.33333333333331" stroke-width="0.5" stroke="blue" fill="none" />
<path d="M 222 231.33333333333331 L 224 227.33333333333331 L 226 231.33333333333331 z" id="92" fill="red" />
<circle cx="224" cy="228" r="1" id="92" fill="black" />
<path d="M 224 270 L 224 183.33333333333331" stroke-width="0.5" stroke="blue" fill="none" />
<path d="M 224 251.33333333333331 L 226 247.33333333333331 L 228 251.33333333333331 z" id="93" fill="red" />
<circle cx="226" cy="222" r="1" id="93" fill="black" />
<path d="M 226 270 L 226 183.33333333333331" stroke-width="0.5" stroke="blue" fill="none" />
<path d="M 226 251.33333333333331 L 228 247.33333333333331 L 230 251.33333333333331 z" id="94" fill="red" />
<circle cx="228" cy="224" r="1" id="94" fill="black" />
<path d="M 228 270 L 228 183.33333333333331" stroke-width="0.5" stroke="blue" fill="none" />
<path d="M 228 251.33333333333331 L 230 247.33333333333331 L 232 251.33333333333331 z" id="95" fill="red" />
<circle cx="230" cy="224" r="1" id="95" fill="black" />
<path d="M 230 270 L 230 183.33333333333331" stroke-width="0.5" stroke="blue" fill="none" />
<path d="M 230 248 L 232 244 L 234 248 z" id="96" fill="red" />
<circle cx="232" cy="221" r="1" id="96" fill="black" />
<path d="M 232 270 L 232 173.33333333333331" stroke-width="0.5" stroke="blue" fill="none" />
<path d="M 232 251.33333333333331 L 234 247.33333333333331 L 236 251.33333333333331 z" id="97" fill="red" />
<circle cx="234" cy="219" r="1" id="97" fill="black" />
<path d="M 234 270 L 234 173.33333333333331" stroke-width="0.5" stroke="blue" fill="none" />
<path d="M 234 238 L 236 234 L 238 238 z" id="98" fill="red" />
<circle cx="236" cy="222" r="1" id="98" fill="black" />
<path d="M 236 270 L 236 173.33333333333331" stroke-width="0.5" stroke="blue" fill="none" />
<path d="M 236 188 L 238 184 L 240 188 z" id="99" fill="red" />
<circle cx="238" cy="212" r="1" id="99" fill="black" />
<path d="M 238 270 L 238 173.33333333333331" stroke-width="0.5" stroke="blue" fill="none" />
<path d="M 238 188 L 240 184 L 242 188 z" id="100" fill="red" />
<circle cx="240" cy="208" r="1" id="100" fill="black" />
<path d="M 240 270 L 240 173.33333333333331" stroke-width="0.5" stroke="blue" fill="none" />
<path d="M 240 228 L 242 224 L 244 228 z" id="101" fill="red" />
<circle cx="242" cy="208" r="1" id="101" fill="black" />
<path d="M 242 270 L 242 166.66666666666666" stroke-width="0.5" stroke="blue" fill="none" />
<path d="M 242 164.66666666666666 L 244 160.66666666666666 L 246 164.66666666666666 z" id="102" fill="red" />
<circle cx="244" cy="207" r="1" id="102" fill="black" />
<path d="M 244 270 L 244 156.66666666666666" stroke-width="0.5" stroke="blue" fill="none" />
<path d="M 244 164.66666666666666 L 246 160.66666666666666 L 248 164.66666666666666 z" id="103" fill="red" />
<circle cx="246" cy="199" r="1" id="103" fill="black" />
<path d="M 246 270 L 246 156.66666666666666" stroke-width="0.5" stroke="blue" fill="none" />
<path d="M 246 178 L 248 174 L 250 178 z" id="104" fill="red" />
<circle cx="248" cy="197" r="1" id="104" fill="black" />
<path d="M 248 270 L 248 156.66666666666666" stroke-width="0.5" stroke="blue" fill="none" />
<path d="M 248 174.66666666666666 L 250 170.66666666666666 L 252 174.66666666666666 z" id="105" fill="red" />
<circle cx="250" cy="198" r="1" id="105" fill="black" />
<path d="M 250 270 L 250 156.66666666666666" stroke-width="0.5" stroke="blue" fill="none" />
<path d="M 250 174.66666666666666 L 252 170.66666666666666 L 254 174.66666666666666 z" id="106" fill="red" />
<circle cx="252" cy="195" r="1" id="106" fill="black" />
<path d="M 252 270 L 252 146.66666666666666" stroke-width="0.5" stroke="blue" fill="none" />
<path d="M 252 174.66666666666666 L 254 170.66666666666666 L 256 174.66666666666666 z" id="107" fill="red" />
<circle cx="254" cy="194" r="1" id="107" fill="black" />
<path d="M 254 270 L 254 146.66666666666666" stroke-width="0.5" stroke="blue" fill="none" />
<path d="M 254 248 L 256 244 L 258 248 z" id="108" fill="red" />
<circle cx="256" cy="195" r="1" id="108" fill="black" />
<path d="M 256 270 L 256 146.66666666666666" stroke-width="0.5" stroke="blue" fill="none" />
<path d="M 256 248 L 258 244 L 260 248 z" id="109" fill="red" />
<circle cx="258" cy="194" r="1" id="109" fill="black" />
<path d="M 258 270 L 258 143.33333333333331" stroke-width="0.5" stroke="blue" fill="none" />
<path d="M 258 248 L 260 244 L 262 248 z" id="110" fill="red" />
<circle cx="260" cy="194" r="1" id="110" fill="black" />
<path d="M 260 270 L 260 143.33333333333331" stroke-width="0.5" stroke="blue" fill="none" />
<path d="M 260 164.66666666666666 L 262 160.66666666666666 L 264 164.66666666666666 z" id="111" fill="red" />
<circle cx="262" cy="192" r="1" id="111" fill="black" />
<path d="M 262 270 L 262 143.33333333333331" stroke-width="0.5" stroke="blue" fill="none" />
<path d="M 262 164.66666666666666 L 264 160.66666666666666 L 266 164.66666666666666 z" id="112" fill="red" />
<circle cx="264" cy="191" r="1" id="112" fill="black" />
<path d="M 264 270 L 264 143.33333333333331" stroke-width="0.5" stroke="blue" fill="none" />
<path d="M 264 164.66666666666666 L 266 160.66666666666666 L 268 164.66666666666666 z" id="113" fill="red" />
<circle cx="266" cy="192" r="1" id="113" fill="black" />
<path d="M 266 270 L 266 143.33333333333331" stroke-width="0.5" stroke="blue" fill="none" />
<path d="M 266 184.66666666666666 L 268 180.66666666666666 L 270 184.66666666666666 z" id="114" fill="red" />
<circle cx="268" cy="184" r="1" id="114" fill="black" />
<path d="M 268 270 L 268 143.33333333333331" stroke-width="0.5" stroke="blue" fill="none" />
<path d="M 268 184.66666666666666 L 270 180.66666666666666 L 272 184.66666666666666 z" id="115" fill="red" />
<circle cx="270" cy="182" r="1" id="115" fill="black" />
<path d="M 270 230 L 270 143.33333333333331" stroke-width="0.5" stroke="blue" fill="none" />
<path d="M 270 151.33333333333331 L 272 147.33333333333331 L 274 151.33333333333331 z" id="116" fill="red" />
<circle cx="272" cy="178" r="1" id="116" fill="black" />
<path d="M 272 230 L 272 140" stroke-width="0.5" stroke="blue" fill="none" />
<path d="M 272 161.33333333333331 L 274 157.33333333333331 L 276 161.33333333333331 z" id="117" fill="red" />
<circle cx="274" cy="177" r="1" id="117" fill="black" />
<path d="M 274 230 L 274 140" stroke-width="0.5" stroke="blue" fill="none" />
<path d="M 274 151.33333333333331 L 276 147.33333333333331 L 278 151.33333333333331 z" id="118" fill="red" />
<circle cx="276" cy="172" r="1" id="118" fill="black" />
<path d="M 276 210 L 276 140" stroke-width="0.5" stroke="blue" fill="none" />
<path d="M 276 151.33333333333331 L 278 147.33333333333331 L 280 151.33333333333331 z" id="119" fill="red" />
<circle cx="278" cy="174" r="1" id="119" fill="black" />
<path d="M 278 210 L 278 140" stroke-width="0.5" stroke="blue" fill="none" />
<path d="M 278 148 L 280 144 L 282 148 z" id="120" fill="red" />
<circle cx="280" cy="170" r="1" id="120" fill="black" />
<path d="M 280 200 L 280 136.66666666666666" stroke-width="0.5" stroke="blue" fill="none" />
<path d="M 280 144.66666666666666 L 282 140.66666666666666 L 284 144.66666666666666 z" id="121" fill="red" />
<circle cx="282" cy="173" r="1" id="121" fill="black" />
<path d="M 282 196.66666666666666 L 282 126.66666666666666" stroke-width="0.5" stroke="blue" fill="none" />
<path d="M 282 148 L 284 144 L 286 148 z" id="122" fill="red" />
<circle cx="284" cy="170" r="1" id="122" fill="black" />
<path d="M 284 196.66666666666666 L 284 126.66666666666666" stroke-width="0.5" stroke="blue" fill="none" />
<path d="M 284 144.66666666666666 L 286 140.66666666666666 L 288 144.66666666666666 z" id="123" fill="red" />
<circle cx="286" cy="170" r="1" id="123" fill="black" />
<path d="M 286 193.33333333333331 L 286 126.66666666666666" stroke-width="0.5" stroke="blue" fill="none" />
<path d="M 286 148 L 288 144 L 290 148 z" id="124" fill="red" />
<circle cx="288" cy="163" r="1" id="124" fill="black" />
<path d="M 288 193.33333333333331 L 288 126.66666666666666" stroke-width="0.5" stroke="blue" fill="none" />
<path d="M 288 148 L 290 144 L 292 148 z" id="125" fill="red" />
<circle cx="290" cy="158" r="1" id="125" fill="black" />
<path d="M 290 193.33333333333331 L 290 126.66666666666666" stroke-width="0.5" stroke="blue" fill="none" />
<path d="M 290 148 L 292 144 L 294 148 z" id="126" fill="red" />
<circle cx="292" cy="159" r="1" id="126" fill="black" />
<path d="M 292 190 L 292 126.66666666666666" stroke-width="0.5" stroke="blue" fill="none" />
<path d="M 292 148 L 294 144 L 296 148 z" id="127" fill="red" />
<circle cx="294" cy="160" r="1" id="127" fill="black" />
<path d="M 294 190 L 294 126.66666666666666" stroke-width="0.5" stroke="blue" fill="none" />
<path d="M 294 141.33333333333331 L 296 137.33333333333331 L 298 141.33333333333331 z" id="128" fill="red" />
<circle cx="296" cy="159" r="1" id="128" fill="black" />
<path d="M 296 190 L 296 126.66666666666666" stroke-width="0.5" stroke="blue" fill="none" />
<path d="M 296 141.33333333333331 L 298 137.33333333333331 L 300 141.33333333333331 z" id="129" fill="red" />
<circle cx="298" cy="155" r="1" id="129" fill="black" />
<path d="M 298 190 L 298 126.66666666666666" stroke-width="0.5" stroke="blue" fill="none" />
<path d="M 298 141.33333333333331 L 300 137.33333333333331 L 302 141.33333333333331 z" id="130" fill="red" />
<circle cx="300" cy="154" r="1" id="130" fill="black" />
<path d="M 300 190 L 300 126.66666666666666" stroke-width="0.5" stroke="blue" fill="none" />
<path d="M 300 141.33333333333331 L 302 137.33333333333331 L 304 141.33333333333331 z" id="131" fill="red" />
<circle cx="302" cy="154" r="1" id="131" fill="black" />
<path d="M 302 190 L 302 126.66666666666666" stroke-width="0.5" stroke="blue" fill="none" />
<path d="M 302 138 L 304 134 L 306 138 z" id="132" fill="red" />
<circle cx="304" cy="153" r="1" id="132" fill="black" />
<path d="M 304 190 L 304 126.66666666666666" stroke-width="0.5" stroke="blue" fill="none" />
<path d="M 304 141.33333333333331 L 306 137.33333333333331 L 308 141.33333333333331 z" id="133" fill="red" />
<circle cx="306" cy="153" r="1" id="133" fill="black" />
<path d="M 306 190 L 306 126.66666666666666" stroke-width="0.5" stroke="blue" fill="none" />
<path d="M 306 138 L 308 134 L 310 138 z" id="134" fill="red" />
<circle cx="308" cy="151" r="1" id="134" fill="black" />
<path d="M 308 190 L 308 126.66666666666666" stroke-width="0.5" stroke="blue" fill="none" />
<path d="M 308 138 L 310 134 L 312 138 z" id="135" fill="red" />
<circle cx="310" cy="152" r="1" id="135" fill="black" />
<path d="M 310 190 L 310 126.66666666666666" stroke-width="0.5" stroke="blue" fill="none" />
<path d="M 310 134.66666666666666 L 312 130.66666666666666 L 314 134.66666666666666 z" id="136" fill="red" />
<circle cx="312" cy="148" r="1" id="136" fill="black" />
<path d="M 312 190 L 312 126.66666666666666" stroke-width="0.5" stroke="blue" fill="none" />
<path d="M 312 128 L 314 124 L 316 128 z" id="137" fill="red" />
<circle cx="314" cy="150" r="1" id="137" fill="black" />
<path d="M 314 190 L 314 126.66666666666666" stroke-width="0.5" stroke="blue" fill="none" />
<path d="M 314 138 L 316 134 L 318 138 z" id="138" fill="red" />
<circle cx="316" cy="148" r="1" id="138" fill="black" />
<path d="M 316 190 L 316 123.33333333333331" stroke-width="0.5" stroke="blue" fill="none" />
<path d="M 316 138 L 318 134 L 320 138 z" id="139" fill="red" />
<circle cx="318" cy="143" r="1" id="139" fill="black" />
<path d="M 318 170 L 318 123.33333333333331" stroke-width="0.5" stroke="blue" fill="none" />
<path d="M 318 128 L 320 124 L 322 128 z" id="140" fill="red" />
<circle cx="320" cy="141" r="1" id="140" fill="black" />
<path d="M 320 170 L 320 123.33333333333331" stroke-width="0.5" stroke="blue" fill="none" />
<path d="M 320 128 L 322 124 L 324 128 z" id="141" fill="red" />
<circle cx="322" cy="138" r="1" id="141" fill="black" />
<path d="M 322 170 L 322 116.66666666666666" stroke-width="0.5" stroke="blue" fill="none" />
<path d="M 322 128 L 324 124 L 326 128 z" id="142" fill="red" />
<circle cx="324" cy="136" r="1" id="142" fill="black" />
<path d="M 324 170 L 324 123.33333333333331" stroke-width="0.5" stroke="blue" fill="none" />
<path d="M 324 128 L 326 124 L 328 128 z" id="143" fill="red" />
<circle cx="326" cy="135" r="1" id="143" fill="black" />
<path d="M 326 160 L 326 123.33333333333331" stroke-width="0.5" stroke="blue" fill="none" />
<path d="M 326 128 L 328 124 L 330 128 z" id="144" fill="red" />
<circle cx="328" cy="135" r="1" id="144" fill="black" />
<path d="M 328 156.66666666666666 L 328 116.66666666666666" stroke-width="0.5" stroke="blue" fill="none" />
<path d="M 328 124.66666666666666 L 330 120.66666666666666 L 332 124.66666666666666 z" id="145" fill="red" />
<circle cx="330" cy="132" r="1" id="145" fill="black" />
<path d="M 330 156.66666666666666 L 330 110" stroke-width="0.5" stroke="blue" fill="none" />
<path d="M 330 124.66666666666666 L 332 120.66666666666666 L 334 124.66666666666666 z" id="146" fill="red" />
<circle cx="332" cy="132" r="1" id="146" fill="black" />
<path d="M 332 156.66666666666666 L 332 110" stroke-width="0.5" stroke="blue" fill="none" />
<path d="M 332 118 L 334 114 L 336 118 z" id="147" fill="red" />
<circle cx="334" cy="130" r="1" id="147" fill="black" />
<path d="M 334 156.66666666666666 L 334 110" stroke-width="0.5" stroke="blue" fill="none" />
<path d="M 334 114.66666666666666 L 336 110.66666666666666 L 338 114.66666666666666 z" id="148" fill="red" />
<circle cx="336" cy="130" r="1" id="148" fill="black" />
<path d="M 336 156.66666666666666 L 336 100" stroke-width="0.5" stroke="blue" fill="none" />
<path d="M 336 108 L 338 104 L 340 108 z" id="149" fill="red" />
<circle cx="338" cy="129" r="1" id="149" fill="black" />
<path d="M 338 156.66666666666666 L 338 106.66666666666666" stroke-width="0.5" stroke="blue" fill="none" />
<path d="M 338 104.66666666666666 L 340 100.66666666666666 L 342 104.66666666666666 z" id="150" fill="red" />
<circle cx="340" cy="129" r="1" id="150" fill="black" />
<path d="M 340 156.66666666666666 L 340 106.66666666666666" stroke-width="0.5" stroke="blue" fill="none" />
<path d="M 340 104.66666666666666 L 342 100.66666666666666 L 344 104.66666666666666 z" id="151" fill="red" />
<circle cx="342" cy="130" r="1" id="151" fill="black" />
<path d="M 342 156.66666666666666 L 342 106.66666666666666" stroke-width="0.5" stroke="blue" fill="none" />
<path d="M 342 141.33333333333331 L 344 137.33333333333331 L 346 141.33333333333331 z" id="152" fill="red" />
<circle cx="344" cy="128" r="1" id="152" fill="black" />
<path d="M 344 156.66666666666666 L 344 106.66666666666666" stroke-width="0.5" stroke="blue" fill="none" />
<path d="M 344 141.33333333333331 L 346 137.33333333333331 L 348 141.33333333333331 z" id="153" fill="red" />
<circle cx="346" cy="129" r="1" id="153" fill="black" />
<path d="M 346 156.66666666666666 L 346 106.66666666666666" stroke-width="0.5" stroke="blue" fill="none" />
<path d="M 346 111.33333333333331 L 348 107.33333333333331 L 350 111.33333333333331 z" id="154" fill="red" />
<circle cx="348" cy="126" r="1" id="154" fill="black" />
<path d="M 348 150 L 348 103.33333333333331" stroke-width="0.5" stroke="blue" fill="none" />
<path d="M 348 118 L 350 114 L 352 118 z" id="155" fill="red" />
<circle cx="350" cy="121" r="1" id="155" fill="black" />
<path d="M 350 150 L 350 103.33333333333331" stroke-width="0.5" stroke="blue" fill="none" />
<path d="M 350 118 L 352 114 L 354 118 z" id="156" fill="red" />
<circle cx="352" cy="119" r="1" id="156" fill="black" />
<path d="M 352 150 L 352 103.33333333333331" stroke-width="0.5" stroke="blue" fill="none" />
<path d="M 352 104.66666666666666 L 354 100.66666666666666 L 356 104.66666666666666 z" id="157" fill="red" />
<circle cx="354" cy="121" r="1" id="157" fill="black" />
<path d="M 354 150 L 354 100" stroke-width="0.5" stroke="blue" fill="none" />
<path d="M 354 118 L 356 114 L 358 118 z" id="158" fill="red" />
<circle cx="356" cy="120" r="1" id="158" fill="black" />
<path d="M 356 150 L 356 100" stroke-width="0.5" stroke="blue" fill="none" />
<path d="M 356 101.33333333333331 L 358 97.33333333333331 L 360 101.33333333333331 z" id="159" fill="red" />
<circle cx="358" cy="116" r="1" id="159" fill="black" />
<path d="M 358 143.33333333333331 L 358 100" stroke-width="0.5" stroke="blue" fill="none" />
<path d="M 358 101.33333333333331 L 360 97.33333333333331 L 362 101.33333333333331 z" id="160" fill="red" />
<circle cx="360" cy="113" r="1" id="160" fill="black" />
<path d="M 360 143.33333333333331 L 360 100" stroke-width="0.5" stroke="blue" fill="none" />
<path d="M 360 101.33333333333331 L 362 97.33333333333331 L 364 101.33333333333331 z" id="161" fill="red" />
<circle cx="362" cy="111" r="1" id="161" fill="black" />
<path d="M 362 140 L 362 96.66666666666666" stroke-width="0.5" stroke="blue" fill="none" />
<path d="M 362 98 L 364 94 L 366 98 z" id="162" fill="red" />
<circle cx="364" cy="113" r="1" id="162" fill="black" />
<path d="M 364 140 L 364 96.66666666666666" stroke-width="0.5" stroke="blue" fill="none" />
<path d="M 364 98 L 366 94 L 368 98 z" id="163" fill="red" />
<circle cx="366" cy="112" r="1" id="163" fill="black" />
<path d="M 366 140 L 366 90" stroke-width="0.5" stroke="blue" fill="none" />
<path d="M 366 98 L 368 94 L 370 98 z" id="164" fill="red" />
<circle cx="368" cy="108" r="1" id="164" fill="black" />
<path d="M 368 130 L 368 90" stroke-width="0.5" stroke="blue" fill="none" />
<path d="M 368 88 L 370 84 L 372 88 z" id="165" fill="red" />
<circle cx="370" cy="104" r="1" id="165" fill="black" />
<path d="M 370 126.66666666666666 L 370 90" stroke-width="0.5" stroke="blue" fill="none" />
<path d="M 370 88 L 372 84 L 374 88 z" id="166" fill="red" />
<circle cx="372" cy="102" r="1" id="166" fill="black" />
<path d="M 372 126.66666666666666 L 372 90" stroke-width="0.5" stroke="blue" fill="none" />
<path d="M 372 88 L 374 84 L 376 88 z" id="167" fill="red" />
<circle cx="374" cy="99" r="1" id="167" fill="black" />
<path d="M 374 126.66666666666666 L 374 80" stroke-width="0.5" stroke="blue" fill="none" />
<path d="M 374 98 L 376 94 L 378 98 z" id="168" fill="red" />
<circle cx="376" cy="99" r="1" id="168" fill="black" />
<path d="M 376 126.66666666666666 L 376 80" stroke-width="0.5" stroke="blue" fill="none" />
<path d="M 376 111.33333333333331 L 378 107.33333333333331 L 380 111.33333333333331 z" id="169" fill="red" />
<circle cx="378" cy="98" r="1" id="169" fill="black" />
<path d="M 378 126.66666666666666 L 378 80" stroke-width="0.5" stroke="blue" fill="none" />
<path d="M 378 88 L 380 84 L 382 88 z" id="170" fill="red" />
<circle cx="380" cy="98" r="1" id="170" fill="black" />
<path d="M 380 126.66666666666666 L 380 76.66666666666663" stroke-width="0.5" stroke="blue" fill="none" />
<path d="M 380 98 L 382 94 L 384 98 z" id="171" fill="red" />
<circle cx="382" cy="95" r="1" id="171" fill="black" />
<path d="M 382 126.66666666666666 L 382 76.66666666666663" stroke-width="0.5" stroke="blue" fill="none" />
<path d="M 382 111.33333333333331 L 384 107.33333333333331 L 386 111.33333333333331 z" id="172" fill="red" />
<circle cx="384" cy="93" r="1" id="172" fill="black" />
<path d="M 384 126.66666666666666 L 384 76.66666666666663" stroke-width="0.5" stroke="blue" fill="none" />
<path d="M 384 74.66666666666663 L 386 70.66666666666663 L 388 74.66666666666663 z" id="173" fill="red" />
<circle cx="386" cy="91" r="1" id="173" fill="black" />
<path d="M 386 126.66666666666666 L 386 66.66666666666663" stroke-width="0.5" stroke="blue" fill="none" />
<path d="M 386 111.33333333333331 L 388 107.33333333333331 L 390 111.33333333333331 z" id="174" fill="red" />
<circle cx="388" cy="87" r="1" id="174" fill="black" />
<path d="M 388 126.66666666666666 L 388 66.66666666666663" stroke-width="0.5" stroke="blue" fill="none" />
<path d="M 388 111.33333333333331 L 390 107.33333333333331 L 392 111.33333333333331 z" id="175" fill="red" />
<circle cx="390" cy="86" r="1" id="175" fill="black" />
<path d="M 390 126.66666666666666 L 390 66.66666666666663" stroke-width="0.5" stroke="blue" fill="none" />
<path d="M 390 71.33333333333331 L 392 67.33333333333331 L 394 71.33333333333331 z" id="176" fill="red" />
<circle cx="392" cy="85" r="1" id="176" fill="black" />
<path d="M 392 126.66666666666666 L 392 66.66666666666663" stroke-width="0.5" stroke="blue" fill="none" />
<path d="M 392 88 L 394 84 L 396 88 z" id="177" fill="red" />
<circle cx="394" cy="82" r="1" id="177" fill="black" />
<path d="M 394 126.66666666666666 L 394 66.66666666666663" stroke-width="0.5" stroke="blue" fill="none" />
<path d="M 394 111.33333333333331 L 396 107.33333333333331 L 398 111.33333333333331 z" id="178" fill="red" />
<circle cx="396" cy="81" r="1" id="178" fill="black" />
<path d="M 396 126.66666666666666 L 396 56.66666666666663" stroke-width="0.5" stroke="blue" fill="none" />
<path d="M 396 68 L 398 64 L 400 68 z" id="179" fill="red" />
<circle cx="398" cy="82" r="1" id="179" fill="black" />
<path d="M 398 126.66666666666666 L 398 53.333333333333314" stroke-width="0.5" stroke="blue" fill="none" />
<path d="M 398 98 L 400 94 L 402 98 z" id="180" fill="red" />
<circle cx="400" cy="79" r="1" id="180" fill="black" />
<path d="M 400 116.66666666666666 L 400 53.333333333333314" stroke-width="0.5" stroke="blue" fill="none" />
<path d="M 400 111.33333333333331 L 402 107.33333333333331 L 404 111.33333333333331 z" id="181" fill="red" />
<circle cx="402" cy="78" r="1" id="181" fill="black" />
<path d="M 402 116.66666666666666 L 402 53.333333333333314" stroke-width="0.5" stroke="blue" fill="none" />
<path d="M 402 51.333333333333314 L 404 47.333333333333314 L 406 51.333333333333314 z" id="182" fill="red" />
<circle cx="404" cy="78" r="1" id="182" fill="black" />
<path d="M 404 113.33333333333331 L 404 53.333333333333314" stroke-width="0.5" stroke="blue" fill="none" />
<path d="M 404 61.333333333333314 L 406 57.333333333333314 L 408 61.333333333333314 z" id="183" fill="red" />
<circle cx="406" cy="76" r="1" id="183" fill="black" />
<path d="M 406 113.33333333333331 L 406 53.333333333333314" stroke-width="0.5" stroke="blue" fill="none" />
<path d="M 406 58 L 408 54 L 410 58 z" id="184" fill="red" />
<circle cx="408" cy="75" r="1" id="184" fill="black" />
<path d="M 408 113.33333333333331 L 408 53.333333333333314" stroke-width="0.5" stroke="blue" fill="none" />
<path d="M 408 58 L 410 54 L 412 58 z" id="185" fill="red" />
<circle cx="410" cy="75" r="1" id="185" fill="black" />
<path d="M 410 103.33333333333331 L 410 53.333333333333314" stroke-width="0.5" stroke="blue" fill="none" />
<path d="M 410 54.66666666666663 L 412 50.66666666666663 L 414 54.66666666666663 z" id="186" fill="red" />
<circle cx="412" cy="73" r="1" id="186" fill="black" />
<path d="M 412 103.33333333333331 L 412 50" stroke-width="0.5" stroke="blue" fill="none" />
<path d="M 412 54.66666666666663 L 414 50.66666666666663 L 416 54.66666666666663 z" id="187" fill="red" />
<circle cx="414" cy="69" r="1" id="187" fill="black" />
<path d="M 414 103.33333333333331 L 414 50" stroke-width="0.5" stroke="blue" fill="none" />
<path d="M 414 51.333333333333314 L 416 47.333333333333314 L 418 51.333333333333314 z" id="188" fill="red" />
<circle cx="416" cy="69" r="1" id="188" fill="black" />
<path d="M 416 103.33333333333331 L 416 50" stroke-width="0.5" stroke="blue" fill="none" />
<path d="M 416 51.333333333333314 L 418 47.333333333333314 L 420 51.333333333333314 z" id="189" fill="red" />
<circle cx="418" cy="67" r="1" id="189" fill="black" />
<path d="M 418 103.33333333333331 L 418 40" stroke-width="0.5" stroke="blue" fill="none" />
<path d="M 418 51.333333333333314 L 420 47.333333333333314 L 422 51.333333333333314 z" id="190" fill="red" />
<circle cx="420" cy="67" r="1" id="190" fill="black" />
<path d="M 420 103.33333333333331 L 420 40" stroke-width="0.5" stroke="blue" fill="none" />
</svg>
