<?xml version="1.0"?>
<!-- Generated by SVGo -->
<svg width="575" height="375"
     xmlns="http://www.w3.org/2000/svg" 
     xmlns:xlink="http://www.w3.org/1999/xlink">
<path d="M 40 340 L 540 340" id="generation" stroke-width="1" stroke="black" fill="none" />
<text fill="blue" font-size="15" font-family="Verdana" dy="30" startOffset="40%" ><textPath xlink:href="#generation">Generation</textPath></text>
<path d="M 140 345 L 140 335" stroke-width="1" stroke="black" fill="none" />
<path d="M 240 345 L 240 335" stroke-width="1" stroke="black" fill="none" />
<path d="M 340 345 L 340 335" stroke-width="1" stroke="black" fill="none" />
<path d="M 440 345 L 440 335" stroke-width="1" stroke="black" fill="none" />
<path d="M 540 345 L 540 335" stroke-width="1" stroke="black" fill="none" />
<text x="132" y="355" fill="black" font-size="11" font-family="Verdana" >38</text>
<text x="232" y="355" fill="black" font-size="11" font-family="Verdana" >76</text>
<text x="332" y="355" fill="black" font-size="11" font-family="Verdana" >114</text>
<text x="432" y="355" fill="black" font-size="11" font-family="Verdana" >152</text>
<text x="532" y="355" fill="black" font-size="11" font-family="Verdana" >190</text>
<path d="M 40 340 L 40 40" id="fitness" stroke-width="1" strok="black" fill="none" />
<text fill="blue" font-size="15" font-family="Verdana" dy="-25" startOffset="40%" ><textPath xlink:href="#fitness">Fitness</textPath></text>
<path d="M 40 40 L 540 40" id="fitness1" stroke-width="0.5" stroke="green" fill="none" />
<text fill="green" fill-opacity="1.0" font-size="9" font-family="Verdana" dy="8" startOffset="90%" ><textPath xlink:href="#fitness1">20.000000</textPath></text>
<path d="M 40 100 L 540 100" id="fitness2" stroke-width="0.5" stroke="green" fill="none" />
<text fill="green" fill-opacity="1.0" font-size="9" font-family="Verdana" dy="8" startOffset="70%" ><textPath xlink:href="#fitness2">16.400000</textPath></text>
<path d="M 40 160 L 540 160" id="fitness3" stroke-width="0.5" stroke="green" fill="none" />
<text fill="green" fill-opacity="1.0" font-size="9" font-family="Verdana" dy="8" startOffset="50%" ><textPath xlink:href="#fitness3">12.800000</textPath></text>
<path d="M 40 220 L 540 220" id="fitness4" stroke-width="0.5" stroke="green" fill="none" />
<text fill="green" fill-opacity="1.0" font-size="9" font-family="Verdana" dy="8" startOffset="30%" ><textPath xlink:href="#fitness4">9.200000</textPath></text>
<path d="M 40 280 L 540 280" id="fitness5" stroke-width="0.5" stroke="green" fill="none" />
<text fill="green" fill-opacity="1.0" font-size="9" font-family="Verdana" dy="8" startOffset="10%" ><textPath xlink:href="#fitness5">5.600000</textPath></text>
<text fill="green" fill-opacity="1.0" font-size="9" font-family="Verdana" dy="8" startOffset="0%" ><textPath xlink:href="#generation">2.000000</textPath></text>
<circle cx="40" cy="338" r="1" id="0" fill="black" />
<path d="M 40 340 L 40 206.66666666666666" stroke-width="0.5" stroke="blue" fill="none" />
<circle cx="42" cy="338" r="1" id="1" fill="black" />
<path d="M 42 340 L 42 206.66666666666666" stroke-width="0.5" stroke="blue" fill="none" />
<circle cx="44" cy="337" r="1" id="2" fill="black" />
<path d="M 44 340 L 44 206.66666666666666" stroke-width="0.5" stroke="blue" fill="none" />
<circle cx="46" cy="338" r="1" id="3" fill="black" />
<path d="M 46 340 L 46 206.66666666666666" stroke-width="0.5" stroke="blue" fill="none" />
<circle cx="48" cy="336" r="1" id="4" fill="black" />
<path d="M 48 340 L 48 206.66666666666666" stroke-width="0.5" stroke="blue" fill="none" />
<circle cx="50" cy="336" r="1" id="5" fill="black" />
<path d="M 50 340 L 50 206.66666666666666" stroke-width="0.5" stroke="blue" fill="none" />
<circle cx="52" cy="335" r="1" id="6" fill="black" />
<path d="M 52 340 L 52 173.33333333333331" stroke-width="0.5" stroke="blue" fill="none" />
<circle cx="54" cy="338" r="1" id="7" fill="black" />
<path d="M 54 340 L 54 306.6666666666667" stroke-width="0.5" stroke="blue" fill="none" />
<circle cx="56" cy="336" r="1" id="8" fill="black" />
<path d="M 56 340 L 56 306.6666666666667" stroke-width="0.5" stroke="blue" fill="none" />
<circle cx="58" cy="335" r="1" id="9" fill="black" />
<path d="M 58 340 L 58 206.66666666666666" stroke-width="0.5" stroke="blue" fill="none" />
<circle cx="60" cy="336" r="1" id="10" fill="black" />
<path d="M 60 340 L 60 306.6666666666667" stroke-width="0.5" stroke="blue" fill="none" />
<circle cx="62" cy="338" r="1" id="11" fill="black" />
<path d="M 62 340 L 62 306.6666666666667" stroke-width="0.5" stroke="blue" fill="none" />
<circle cx="64" cy="333" r="1" id="12" fill="black" />
<path d="M 64 340 L 64 206.66666666666666" stroke-width="0.5" stroke="blue" fill="none" />
<circle cx="66" cy="331" r="1" id="13" fill="black" />
<path d="M 66 340 L 66 240" stroke-width="0.5" stroke="blue" fill="none" />
<circle cx="68" cy="334" r="1" id="14" fill="black" />
<path d="M 68 340 L 68 73.33333333333331" stroke-width="0.5" stroke="blue" fill="none" />
<circle cx="70" cy="327" r="1" id="15" fill="black" />
<path d="M 70 340 L 70 106.66666666666666" stroke-width="0.5" stroke="blue" fill="none" />
<circle cx="72" cy="325" r="1" id="16" fill="black" />
<path d="M 72 340 L 72 106.66666666666666" stroke-width="0.5" stroke="blue" fill="none" />
<circle cx="74" cy="330" r="1" id="17" fill="black" />
<path d="M 74 340 L 74 73.33333333333331" stroke-width="0.5" stroke="blue" fill="none" />
<circle cx="76" cy="330" r="1" id="18" fill="black" />
<path d="M 76 340 L 76 240" stroke-width="0.5" stroke="blue" fill="none" />
<circle cx="78" cy="326" r="1" id="19" fill="black" />
<path d="M 78 340 L 78 173.33333333333331" stroke-width="0.5" stroke="blue" fill="none" />
<circle cx="80" cy="319" r="1" id="20" fill="black" />
<path d="M 80 340 L 80 173.33333333333331" stroke-width="0.5" stroke="blue" fill="none" />
<circle cx="82" cy="319" r="1" id="21" fill="black" />
<path d="M 82 340 L 82 140" stroke-width="0.5" stroke="blue" fill="none" />
<circle cx="84" cy="319" r="1" id="22" fill="black" />
<path d="M 84 340 L 84 140" stroke-width="0.5" stroke="blue" fill="none" />
<circle cx="86" cy="319" r="1" id="23" fill="black" />
<path d="M 86 340 L 86 173.33333333333331" stroke-width="0.5" stroke="blue" fill="none" />
<circle cx="88" cy="322" r="1" id="24" fill="black" />
<path d="M 88 340 L 88 240" stroke-width="0.5" stroke="blue" fill="none" />
<circle cx="90" cy="315" r="1" id="25" fill="black" />
<path d="M 90 340 L 90 173.33333333333331" stroke-width="0.5" stroke="blue" fill="none" />
<circle cx="92" cy="319" r="1" id="26" fill="black" />
<path d="M 92 340 L 92 240" stroke-width="0.5" stroke="blue" fill="none" />
<circle cx="94" cy="322" r="1" id="27" fill="black" />
<path d="M 94 340 L 94 173.33333333333331" stroke-width="0.5" stroke="blue" fill="none" />
<circle cx="96" cy="319" r="1" id="28" fill="black" />
<path d="M 96 340 L 96 240" stroke-width="0.5" stroke="blue" fill="none" />
<circle cx="98" cy="319" r="1" id="29" fill="black" />
<path d="M 98 340 L 98 240" stroke-width="0.5" stroke="blue" fill="none" />
<circle cx="100" cy="315" r="1" id="30" fill="black" />
<path d="M 100 340 L 100 206.66666666666666" stroke-width="0.5" stroke="blue" fill="none" />
<circle cx="102" cy="316" r="1" id="31" fill="black" />
<path d="M 102 340 L 102 173.33333333333331" stroke-width="0.5" stroke="blue" fill="none" />
<circle cx="104" cy="320" r="1" id="32" fill="black" />
<path d="M 104 340 L 104 173.33333333333331" stroke-width="0.5" stroke="blue" fill="none" />
<circle cx="106" cy="315" r="1" id="33" fill="black" />
<path d="M 106 340 L 106 173.33333333333331" stroke-width="0.5" stroke="blue" fill="none" />
<circle cx="108" cy="322" r="1" id="34" fill="black" />
<path d="M 108 340 L 108 240" stroke-width="0.5" stroke="blue" fill="none" />
<circle cx="110" cy="321" r="1" id="35" fill="black" />
<path d="M 110 340 L 110 206.66666666666666" stroke-width="0.5" stroke="blue" fill="none" />
<circle cx="112" cy="320" r="1" id="36" fill="black" />
<path d="M 112 340 L 112 206.66666666666666" stroke-width="0.5" stroke="blue" fill="none" />
<circle cx="114" cy="320" r="1" id="37" fill="black" />
<path d="M 114 340 L 114 173.33333333333331" stroke-width="0.5" stroke="blue" fill="none" />
<circle cx="116" cy="317" r="1" id="38" fill="black" />
<path d="M 116 340 L 116 173.33333333333331" stroke-width="0.5" stroke="blue" fill="none" />
<circle cx="118" cy="312" r="1" id="39" fill="black" />
<path d="M 118 340 L 118 240" stroke-width="0.5" stroke="blue" fill="none" />
<circle cx="120" cy="312" r="1" id="40" fill="black" />
<path d="M 120 340 L 120 206.66666666666666" stroke-width="0.5" stroke="blue" fill="none" />
<circle cx="122" cy="316" r="1" id="41" fill="black" />
<path d="M 122 340 L 122 240" stroke-width="0.5" stroke="blue" fill="none" />
<circle cx="124" cy="315" r="1" id="42" fill="black" />
<path d="M 124 340 L 124 240" stroke-width="0.5" stroke="blue" fill="none" />
<circle cx="126" cy="311" r="1" id="43" fill="black" />
<path d="M 126 340 L 126 206.66666666666666" stroke-width="0.5" stroke="blue" fill="none" />
<circle cx="128" cy="312" r="1" id="44" fill="black" />
<path d="M 128 340 L 128 206.66666666666666" stroke-width="0.5" stroke="blue" fill="none" />
<circle cx="130" cy="322" r="1" id="45" fill="black" />
<path d="M 130 340 L 130 206.66666666666666" stroke-width="0.5" stroke="blue" fill="none" />
<circle cx="132" cy="310" r="1" id="46" fill="black" />
<path d="M 132 340 L 132 240" stroke-width="0.5" stroke="blue" fill="none" />
<circle cx="134" cy="316" r="1" id="47" fill="black" />
<path d="M 134 340 L 134 240" stroke-width="0.5" stroke="blue" fill="none" />
<circle cx="136" cy="313" r="1" id="48" fill="black" />
<path d="M 136 340 L 136 173.33333333333331" stroke-width="0.5" stroke="blue" fill="none" />
<circle cx="138" cy="314" r="1" id="49" fill="black" />
<path d="M 138 340 L 138 173.33333333333331" stroke-width="0.5" stroke="blue" fill="none" />
<circle cx="140" cy="310" r="1" id="50" fill="black" />
<path d="M 140 340 L 140 206.66666666666666" stroke-width="0.5" stroke="blue" fill="none" />
<circle cx="142" cy="312" r="1" id="51" fill="black" />
<path d="M 142 340 L 142 240" stroke-width="0.5" stroke="blue" fill="none" />
<circle cx="144" cy="304" r="1" id="52" fill="black" />
<path d="M 144 340 L 144 206.66666666666666" stroke-width="0.5" stroke="blue" fill="none" />
<circle cx="146" cy="310" r="1" id="53" fill="black" />
<path d="M 146 340 L 146 206.66666666666666" stroke-width="0.5" stroke="blue" fill="none" />
<circle cx="148" cy="301" r="1" id="54" fill="black" />
<path d="M 148 340 L 148 173.33333333333331" stroke-width="0.5" stroke="blue" fill="none" />
<circle cx="150" cy="310" r="1" id="55" fill="black" />
<path d="M 150 340 L 150 173.33333333333331" stroke-width="0.5" stroke="blue" fill="none" />
<circle cx="152" cy="304" r="1" id="56" fill="black" />
<path d="M 152 340 L 152 173.33333333333331" stroke-width="0.5" stroke="blue" fill="none" />
<circle cx="154" cy="318" r="1" id="57" fill="black" />
<path d="M 154 340 L 154 206.66666666666666" stroke-width="0.5" stroke="blue" fill="none" />
<circle cx="156" cy="311" r="1" id="58" fill="black" />
<path d="M 156 340 L 156 206.66666666666666" stroke-width="0.5" stroke="blue" fill="none" />
<circle cx="158" cy="311" r="1" id="59" fill="black" />
<path d="M 158 340 L 158 206.66666666666666" stroke-width="0.5" stroke="blue" fill="none" />
<circle cx="160" cy="319" r="1" id="60" fill="black" />
<path d="M 160 340 L 160 206.66666666666666" stroke-width="0.5" stroke="blue" fill="none" />
<circle cx="162" cy="317" r="1" id="61" fill="black" />
<path d="M 162 340 L 162 206.66666666666666" stroke-width="0.5" stroke="blue" fill="none" />
<circle cx="164" cy="312" r="1" id="62" fill="black" />
<path d="M 164 340 L 164 206.66666666666666" stroke-width="0.5" stroke="blue" fill="none" />
<circle cx="166" cy="314" r="1" id="63" fill="black" />
<path d="M 166 340 L 166 206.66666666666666" stroke-width="0.5" stroke="blue" fill="none" />
<circle cx="168" cy="313" r="1" id="64" fill="black" />
<path d="M 168 340 L 168 173.33333333333331" stroke-width="0.5" stroke="blue" fill="none" />
<circle cx="170" cy="312" r="1" id="65" fill="black" />
<path d="M 170 340 L 170 173.33333333333331" stroke-width="0.5" stroke="blue" fill="none" />
<circle cx="172" cy="306" r="1" id="66" fill="black" />
<path d="M 172 340 L 172 173.33333333333331" stroke-width="0.5" stroke="blue" fill="none" />
<circle cx="174" cy="312" r="1" id="67" fill="black" />
<path d="M 174 340 L 174 173.33333333333331" stroke-width="0.5" stroke="blue" fill="none" />
<circle cx="176" cy="311" r="1" id="68" fill="black" />
<path d="M 176 340 L 176 206.66666666666666" stroke-width="0.5" stroke="blue" fill="none" />
<circle cx="178" cy="309" r="1" id="69" fill="black" />
<path d="M 178 340 L 178 240" stroke-width="0.5" stroke="blue" fill="none" />
<circle cx="180" cy="307" r="1" id="70" fill="black" />
<path d="M 180 340 L 180 240" stroke-width="0.5" stroke="blue" fill="none" />
<circle cx="182" cy="307" r="1" id="71" fill="black" />
<path d="M 182 340 L 182 240" stroke-width="0.5" stroke="blue" fill="none" />
<circle cx="184" cy="304" r="1" id="72" fill="black" />
<path d="M 184 340 L 184 206.66666666666666" stroke-width="0.5" stroke="blue" fill="none" />
<circle cx="186" cy="295" r="1" id="73" fill="black" />
<path d="M 186 340 L 186 173.33333333333331" stroke-width="0.5" stroke="blue" fill="none" />
<circle cx="188" cy="313" r="1" id="74" fill="black" />
<path d="M 188 340 L 188 173.33333333333331" stroke-width="0.5" stroke="blue" fill="none" />
<circle cx="190" cy="314" r="1" id="75" fill="black" />
<path d="M 190 340 L 190 240" stroke-width="0.5" stroke="blue" fill="none" />
<circle cx="192" cy="313" r="1" id="76" fill="black" />
<path d="M 192 340 L 192 173.33333333333331" stroke-width="0.5" stroke="blue" fill="none" />
<circle cx="194" cy="310" r="1" id="77" fill="black" />
<path d="M 194 340 L 194 240" stroke-width="0.5" stroke="blue" fill="none" />
<circle cx="196" cy="308" r="1" id="78" fill="black" />
<path d="M 196 340 L 196 240" stroke-width="0.5" stroke="blue" fill="none" />
<circle cx="198" cy="310" r="1" id="79" fill="black" />
<path d="M 198 340 L 198 206.66666666666666" stroke-width="0.5" stroke="blue" fill="none" />
<circle cx="200" cy="304" r="1" id="80" fill="black" />
<path d="M 200 340 L 200 206.66666666666666" stroke-width="0.5" stroke="blue" fill="none" />
<circle cx="202" cy="311" r="1" id="81" fill="black" />
<path d="M 202 340 L 202 173.33333333333331" stroke-width="0.5" stroke="blue" fill="none" />
<circle cx="204" cy="311" r="1" id="82" fill="black" />
<path d="M 204 340 L 204 240" stroke-width="0.5" stroke="blue" fill="none" />
<circle cx="206" cy="305" r="1" id="83" fill="black" />
<path d="M 206 340 L 206 206.66666666666666" stroke-width="0.5" stroke="blue" fill="none" />
<circle cx="208" cy="308" r="1" id="84" fill="black" />
<path d="M 208 340 L 208 206.66666666666666" stroke-width="0.5" stroke="blue" fill="none" />
<circle cx="210" cy="302" r="1" id="85" fill="black" />
<path d="M 210 340 L 210 173.33333333333331" stroke-width="0.5" stroke="blue" fill="none" />
<circle cx="212" cy="312" r="1" id="86" fill="black" />
<path d="M 212 340 L 212 173.33333333333331" stroke-width="0.5" stroke="blue" fill="none" />
<circle cx="214" cy="299" r="1" id="87" fill="black" />
<path d="M 214 340 L 214 173.33333333333331" stroke-width="0.5" stroke="blue" fill="none" />
<circle cx="216" cy="311" r="1" id="88" fill="black" />
<path d="M 216 340 L 216 173.33333333333331" stroke-width="0.5" stroke="blue" fill="none" />
<circle cx="218" cy="314" r="1" id="89" fill="black" />
<path d="M 218 340 L 218 173.33333333333331" stroke-width="0.5" stroke="blue" fill="none" />
<circle cx="220" cy="312" r="1" id="90" fill="black" />
<path d="M 220 340 L 220 173.33333333333331" stroke-width="0.5" stroke="blue" fill="none" />
<circle cx="222" cy="315" r="1" id="91" fill="black" />
<path d="M 222 340 L 222 206.66666666666666" stroke-width="0.5" stroke="blue" fill="none" />
<circle cx="224" cy="306" r="1" id="92" fill="black" />
<path d="M 224 340 L 224 173.33333333333331" stroke-width="0.5" stroke="blue" fill="none" />
<circle cx="226" cy="303" r="1" id="93" fill="black" />
<path d="M 226 340 L 226 140" stroke-width="0.5" stroke="blue" fill="none" />
<circle cx="228" cy="296" r="1" id="94" fill="black" />
<path d="M 228 340 L 228 106.66666666666666" stroke-width="0.5" stroke="blue" fill="none" />
<circle cx="230" cy="302" r="1" id="95" fill="black" />
<path d="M 230 340 L 230 173.33333333333331" stroke-width="0.5" stroke="blue" fill="none" />
<circle cx="232" cy="298" r="1" id="96" fill="black" />
<path d="M 232 340 L 232 173.33333333333331" stroke-width="0.5" stroke="blue" fill="none" />
<circle cx="234" cy="299" r="1" id="97" fill="black" />
<path d="M 234 340 L 234 140" stroke-width="0.5" stroke="blue" fill="none" />
<circle cx="236" cy="296" r="1" id="98" fill="black" />
<path d="M 236 340 L 236 173.33333333333331" stroke-width="0.5" stroke="blue" fill="none" />
<circle cx="238" cy="294" r="1" id="99" fill="black" />
<path d="M 238 340 L 238 173.33333333333331" stroke-width="0.5" stroke="blue" fill="none" />
<circle cx="240" cy="302" r="1" id="100" fill="black" />
<path d="M 240 340 L 240 206.66666666666666" stroke-width="0.5" stroke="blue" fill="none" />
<circle cx="242" cy="299" r="1" id="101" fill="black" />
<path d="M 242 340 L 242 173.33333333333331" stroke-width="0.5" stroke="blue" fill="none" />
<circle cx="244" cy="304" r="1" id="102" fill="black" />
<path d="M 244 340 L 244 206.66666666666666" stroke-width="0.5" stroke="blue" fill="none" />
<circle cx="246" cy="311" r="1" id="103" fill="black" />
<path d="M 246 340 L 246 206.66666666666666" stroke-width="0.5" stroke="blue" fill="none" />
<circle cx="248" cy="299" r="1" id="104" fill="black" />
<path d="M 248 340 L 248 173.33333333333331" stroke-width="0.5" stroke="blue" fill="none" />
<circle cx="250" cy="298" r="1" id="105" fill="black" />
<path d="M 250 340 L 250 173.33333333333331" stroke-width="0.5" stroke="blue" fill="none" />
<circle cx="252" cy="310" r="1" id="106" fill="black" />
<path d="M 252 340 L 252 173.33333333333331" stroke-width="0.5" stroke="blue" fill="none" />
<circle cx="254" cy="306" r="1" id="107" fill="black" />
<path d="M 254 340 L 254 173.33333333333331" stroke-width="0.5" stroke="blue" fill="none" />
<circle cx="256" cy="291" r="1" id="108" fill="black" />
<path d="M 256 340 L 256 73.33333333333331" stroke-width="0.5" stroke="blue" fill="none" />
<circle cx="258" cy="290" r="1" id="109" fill="black" />
<path d="M 258 340 L 258 106.66666666666666" stroke-width="0.5" stroke="blue" fill="none" />
<circle cx="260" cy="287" r="1" id="110" fill="black" />
<path d="M 260 340 L 260 140" stroke-width="0.5" stroke="blue" fill="none" />
<circle cx="262" cy="312" r="1" id="111" fill="black" />
<path d="M 262 340 L 262 206.66666666666666" stroke-width="0.5" stroke="blue" fill="none" />
<circle cx="264" cy="306" r="1" id="112" fill="black" />
<path d="M 264 340 L 264 173.33333333333331" stroke-width="0.5" stroke="blue" fill="none" />
<circle cx="266" cy="298" r="1" id="113" fill="black" />
<path d="M 266 340 L 266 173.33333333333331" stroke-width="0.5" stroke="blue" fill="none" />
<circle cx="268" cy="308" r="1" id="114" fill="black" />
<path d="M 268 340 L 268 173.33333333333331" stroke-width="0.5" stroke="blue" fill="none" />
<circle cx="270" cy="305" r="1" id="115" fill="black" />
<path d="M 270 340 L 270 173.33333333333331" stroke-width="0.5" stroke="blue" fill="none" />
<circle cx="272" cy="305" r="1" id="116" fill="black" />
<path d="M 272 340 L 272 206.66666666666666" stroke-width="0.5" stroke="blue" fill="none" />
<circle cx="274" cy="303" r="1" id="117" fill="black" />
<path d="M 274 340 L 274 206.66666666666666" stroke-width="0.5" stroke="blue" fill="none" />
<circle cx="276" cy="312" r="1" id="118" fill="black" />
<path d="M 276 340 L 276 206.66666666666666" stroke-width="0.5" stroke="blue" fill="none" />
<circle cx="278" cy="306" r="1" id="119" fill="black" />
<path d="M 278 340 L 278 173.33333333333331" stroke-width="0.5" stroke="blue" fill="none" />
<circle cx="280" cy="299" r="1" id="120" fill="black" />
<path d="M 280 340 L 280 173.33333333333331" stroke-width="0.5" stroke="blue" fill="none" />
<circle cx="282" cy="305" r="1" id="121" fill="black" />
<path d="M 282 340 L 282 173.33333333333331" stroke-width="0.5" stroke="blue" fill="none" />
<circle cx="284" cy="309" r="1" id="122" fill="black" />
<path d="M 284 340 L 284 173.33333333333331" stroke-width="0.5" stroke="blue" fill="none" />
<circle cx="286" cy="305" r="1" id="123" fill="black" />
<path d="M 286 340 L 286 173.33333333333331" stroke-width="0.5" stroke="blue" fill="none" />
<circle cx="288" cy="303" r="1" id="124" fill="black" />
<path d="M 288 340 L 288 173.33333333333331" stroke-width="0.5" stroke="blue" fill="none" />
<circle cx="290" cy="302" r="1" id="125" fill="black" />
<path d="M 290 340 L 290 173.33333333333331" stroke-width="0.5" stroke="blue" fill="none" />
<circle cx="292" cy="302" r="1" id="126" fill="black" />
<path d="M 292 340 L 292 206.66666666666666" stroke-width="0.5" stroke="blue" fill="none" />
<circle cx="294" cy="299" r="1" id="127" fill="black" />
<path d="M 294 340 L 294 106.66666666666666" stroke-width="0.5" stroke="blue" fill="none" />
<circle cx="296" cy="303" r="1" id="128" fill="black" />
<path d="M 296 340 L 296 173.33333333333331" stroke-width="0.5" stroke="blue" fill="none" />
<circle cx="298" cy="310" r="1" id="129" fill="black" />
<path d="M 298 340 L 298 173.33333333333331" stroke-width="0.5" stroke="blue" fill="none" />
<circle cx="300" cy="309" r="1" id="130" fill="black" />
<path d="M 300 340 L 300 173.33333333333331" stroke-width="0.5" stroke="blue" fill="none" />
<circle cx="302" cy="298" r="1" id="131" fill="black" />
<path d="M 302 340 L 302 206.66666666666666" stroke-width="0.5" stroke="blue" fill="none" />
<circle cx="304" cy="302" r="1" id="132" fill="black" />
<path d="M 304 340 L 304 173.33333333333331" stroke-width="0.5" stroke="blue" fill="none" />
<circle cx="306" cy="309" r="1" id="133" fill="black" />
<path d="M 306 340 L 306 206.66666666666666" stroke-width="0.5" stroke="blue" fill="none" />
<circle cx="308" cy="309" r="1" id="134" fill="black" />
<path d="M 308 340 L 308 206.66666666666666" stroke-width="0.5" stroke="blue" fill="none" />
<circle cx="310" cy="307" r="1" id="135" fill="black" />
<path d="M 310 340 L 310 173.33333333333331" stroke-width="0.5" stroke="blue" fill="none" />
<circle cx="312" cy="303" r="1" id="136" fill="black" />
<path d="M 312 340 L 312 173.33333333333331" stroke-width="0.5" stroke="blue" fill="none" />
<circle cx="314" cy="309" r="1" id="137" fill="black" />
<path d="M 314 340 L 314 173.33333333333331" stroke-width="0.5" stroke="blue" fill="none" />
<circle cx="316" cy="300" r="1" id="138" fill="black" />
<path d="M 316 340 L 316 173.33333333333331" stroke-width="0.5" stroke="blue" fill="none" />
<circle cx="318" cy="298" r="1" id="139" fill="black" />
<path d="M 318 340 L 318 173.33333333333331" stroke-width="0.5" stroke="blue" fill="none" />
<circle cx="320" cy="306" r="1" id="140" fill="black" />
<path d="M 320 340 L 320 173.33333333333331" stroke-width="0.5" stroke="blue" fill="none" />
<circle cx="322" cy="308" r="1" id="141" fill="black" />
<path d="M 322 340 L 322 173.33333333333331" stroke-width="0.5" stroke="blue" fill="none" />
<circle cx="324" cy="302" r="1" id="142" fill="black" />
<path d="M 324 340 L 324 140" stroke-width="0.5" stroke="blue" fill="none" />
<circle cx="326" cy="297" r="1" id="143" fill="black" />
<path d="M 326 340 L 326 140" stroke-width="0.5" stroke="blue" fill="none" />
<circle cx="328" cy="305" r="1" id="144" fill="black" />
<path d="M 328 340 L 328 140" stroke-width="0.5" stroke="blue" fill="none" />
<circle cx="330" cy="304" r="1" id="145" fill="black" />
<path d="M 330 340 L 330 173.33333333333331" stroke-width="0.5" stroke="blue" fill="none" />
<circle cx="332" cy="314" r="1" id="146" fill="black" />
<path d="M 332 340 L 332 173.33333333333331" stroke-width="0.5" stroke="blue" fill="none" />
<circle cx="334" cy="304" r="1" id="147" fill="black" />
<path d="M 334 340 L 334 206.66666666666666" stroke-width="0.5" stroke="blue" fill="none" />
<circle cx="336" cy="304" r="1" id="148" fill="black" />
<path d="M 336 340 L 336 206.66666666666666" stroke-width="0.5" stroke="blue" fill="none" />
<circle cx="338" cy="301" r="1" id="149" fill="black" />
<path d="M 338 340 L 338 206.66666666666666" stroke-width="0.5" stroke="blue" fill="none" />
<circle cx="340" cy="296" r="1" id="150" fill="black" />
<path d="M 340 340 L 340 206.66666666666666" stroke-width="0.5" stroke="blue" fill="none" />
<circle cx="342" cy="307" r="1" id="151" fill="black" />
<path d="M 342 340 L 342 206.66666666666666" stroke-width="0.5" stroke="blue" fill="none" />
<circle cx="344" cy="301" r="1" id="152" fill="black" />
<path d="M 344 340 L 344 206.66666666666666" stroke-width="0.5" stroke="blue" fill="none" />
<circle cx="346" cy="297" r="1" id="153" fill="black" />
<path d="M 346 340 L 346 206.66666666666666" stroke-width="0.5" stroke="blue" fill="none" />
<circle cx="348" cy="309" r="1" id="154" fill="black" />
<path d="M 348 340 L 348 140" stroke-width="0.5" stroke="blue" fill="none" />
<circle cx="350" cy="301" r="1" id="155" fill="black" />
<path d="M 350 340 L 350 206.66666666666666" stroke-width="0.5" stroke="blue" fill="none" />
<circle cx="352" cy="296" r="1" id="156" fill="black" />
<path d="M 352 340 L 352 206.66666666666666" stroke-width="0.5" stroke="blue" fill="none" />
<circle cx="354" cy="301" r="1" id="157" fill="black" />
<path d="M 354 340 L 354 206.66666666666666" stroke-width="0.5" stroke="blue" fill="none" />
<circle cx="356" cy="306" r="1" id="158" fill="black" />
<path d="M 356 340 L 356 206.66666666666666" stroke-width="0.5" stroke="blue" fill="none" />
<circle cx="358" cy="295" r="1" id="159" fill="black" />
<path d="M 358 340 L 358 173.33333333333331" stroke-width="0.5" stroke="blue" fill="none" />
<circle cx="360" cy="300" r="1" id="160" fill="black" />
<path d="M 360 340 L 360 173.33333333333331" stroke-width="0.5" stroke="blue" fill="none" />
<circle cx="362" cy="296" r="1" id="161" fill="black" />
<path d="M 362 340 L 362 173.33333333333331" stroke-width="0.5" stroke="blue" fill="none" />
<circle cx="364" cy="304" r="1" id="162" fill="black" />
<path d="M 364 340 L 364 206.66666666666666" stroke-width="0.5" stroke="blue" fill="none" />
<circle cx="366" cy="307" r="1" id="163" fill="black" />
<path d="M 366 340 L 366 206.66666666666666" stroke-width="0.5" stroke="blue" fill="none" />
<circle cx="368" cy="307" r="1" id="164" fill="black" />
<path d="M 368 340 L 368 173.33333333333331" stroke-width="0.5" stroke="blue" fill="none" />
<circle cx="370" cy="304" r="1" id="165" fill="black" />
<path d="M 370 340 L 370 173.33333333333331" stroke-width="0.5" stroke="blue" fill="none" />
<circle cx="372" cy="312" r="1" id="166" fill="black" />
<path d="M 372 340 L 372 206.66666666666666" stroke-width="0.5" stroke="blue" fill="none" />
<circle cx="374" cy="303" r="1" id="167" fill="black" />
<path d="M 374 340 L 374 206.66666666666666" stroke-width="0.5" stroke="blue" fill="none" />
<circle cx="376" cy="304" r="1" id="168" fill="black" />
<path d="M 376 340 L 376 240" stroke-width="0.5" stroke="blue" fill="none" />
<circle cx="378" cy="296" r="1" id="169" fill="black" />
<path d="M 378 340 L 378 206.66666666666666" stroke-width="0.5" stroke="blue" fill="none" />
<circle cx="380" cy="297" r="1" id="170" fill="black" />
<path d="M 380 340 L 380 206.66666666666666" stroke-width="0.5" stroke="blue" fill="none" />
<circle cx="382" cy="299" r="1" id="171" fill="black" />
<path d="M 382 340 L 382 206.66666666666666" stroke-width="0.5" stroke="blue" fill="none" />
<circle cx="384" cy="301" r="1" id="172" fill="black" />
<path d="M 384 340 L 384 173.33333333333331" stroke-width="0.5" stroke="blue" fill="none" />
<circle cx="386" cy="311" r="1" id="173" fill="black" />
<path d="M 386 340 L 386 240" stroke-width="0.5" stroke="blue" fill="none" />
<circle cx="388" cy="303" r="1" id="174" fill="black" />
<path d="M 388 340 L 388 173.33333333333331" stroke-width="0.5" stroke="blue" fill="none" />
<circle cx="390" cy="306" r="1" id="175" fill="black" />
<path d="M 390 340 L 390 173.33333333333331" stroke-width="0.5" stroke="blue" fill="none" />
<circle cx="392" cy="305" r="1" id="176" fill="black" />
<path d="M 392 340 L 392 240" stroke-width="0.5" stroke="blue" fill="none" />
<circle cx="394" cy="304" r="1" id="177" fill="black" />
<path d="M 394 340 L 394 240" stroke-width="0.5" stroke="blue" fill="none" />
<circle cx="396" cy="299" r="1" id="178" fill="black" />
<path d="M 396 340 L 396 240" stroke-width="0.5" stroke="blue" fill="none" />
<circle cx="398" cy="298" r="1" id="179" fill="black" />
<path d="M 398 340 L 398 240" stroke-width="0.5" stroke="blue" fill="none" />
<circle cx="400" cy="294" r="1" id="180" fill="black" />
<path d="M 400 340 L 400 240" stroke-width="0.5" stroke="blue" fill="none" />
<circle cx="402" cy="302" r="1" id="181" fill="black" />
<path d="M 402 340 L 402 240" stroke-width="0.5" stroke="blue" fill="none" />
<circle cx="404" cy="304" r="1" id="182" fill="black" />
<path d="M 404 340 L 404 240" stroke-width="0.5" stroke="blue" fill="none" />
<circle cx="406" cy="290" r="1" id="183" fill="black" />
<path d="M 406 340 L 406 173.33333333333331" stroke-width="0.5" stroke="blue" fill="none" />
<circle cx="408" cy="287" r="1" id="184" fill="black" />
<path d="M 408 340 L 408 173.33333333333331" stroke-width="0.5" stroke="blue" fill="none" />
<circle cx="410" cy="290" r="1" id="185" fill="black" />
<path d="M 410 340 L 410 173.33333333333331" stroke-width="0.5" stroke="blue" fill="none" />
<circle cx="412" cy="294" r="1" id="186" fill="black" />
<path d="M 412 340 L 412 173.33333333333331" stroke-width="0.5" stroke="blue" fill="none" />
<circle cx="414" cy="301" r="1" id="187" fill="black" />
<path d="M 414 340 L 414 173.33333333333331" stroke-width="0.5" stroke="blue" fill="none" />
<circle cx="416" cy="292" r="1" id="188" fill="black" />
<path d="M 416 340 L 416 173.33333333333331" stroke-width="0.5" stroke="blue" fill="none" />
<circle cx="418" cy="290" r="1" id="189" fill="black" />
<path d="M 418 340 L 418 140" stroke-width="0.5" stroke="blue" fill="none" />
<circle cx="420" cy="295" r="1" id="190" fill="black" />
<path d="M 420 340 L 420 40" stroke-width="0.5" stroke="blue" fill="none" />
</svg>
